{
  "accessors": [
    {
      "bufferView": 2,
      "componentType": 5126,
      "count": 39302,
      "max": [
        1.6360019445419312,
        1.8191468715667725,
        3.9618592262268066
      ],
      "min": [
        -1.849397897720337,
        -1.8459395170211792,
        1.0863583087921143
      ],
      "type": "VEC3"
    },
    {
      "bufferView": 2,
      "byteOffset": 471624,
      "componentType": 5126,
      "count": 39302,
      "type": "VEC3"
    },
    {
      "bufferView": 3,
      "componentType": 5126,
      "count": 39302,
      "type": "VEC4"
    },
    {
      "bufferView": 1,
      "componentType": 5126,
      "count": 39302,
      "type": "VEC2"
    },
    {
      "bufferView": 1,
      "byteOffset": 314416,
      "componentType": 5126,
      "count": 39302,
      "type": "VEC2"
    },
    {
      "bufferView": 1,
      "byteOffset": 628832,
      "componentType": 5126,
      "count": 39302,
      "type": "VEC2"
    },
    {
      "bufferView": 0,
      "componentType": 5125,
      "count": 58968,
      "type": "SCALAR"
    },
    {
      "bufferView": 2,
      "byteOffset": 943248,
      "componentType": 5126,
      "count": 65532,
      "max": [
        1.4637808799743652,
        1.6044063568115234,
        3.7965404987335205
      ],
      "min": [
        -1.7004367113113403,
        -1.6831101179122925,
        0.0
      ],
      "type": "VEC3"
    },
    {
      "bufferView": 2,
      "byteOffset": 1729632,
      "componentType": 5126,
      "count": 65532,
      "type": "VEC3"
    },
    {
      "bufferView": 3,
      "byteOffset": 628832,
      "componentType": 5126,
      "count": 65532,
      "type": "VEC4"
    },
    {
      "bufferView": 1,
      "byteOffset": 943248,
      "componentType": 5126,
      "count": 65532,
      "type": "VEC2"
    },
    {
      "bufferView": 1,
      "byteOffset": 1467504,
      "componentType": 5126,
      "count": 65532,
      "type": "VEC2"
    },
    {
      "bufferView": 1,
      "byteOffset": 1991760,
      "componentType": 5126,
      "count": 65532,
      "type": "VEC2"
    },
    {
      "bufferView": 0,
      "byteOffset": 235872,
      "componentType": 5125,
      "count": 200625,
      "type": "SCALAR"
    },
    {
      "bufferView": 2,
      "byteOffset": 2516016,
      "componentType": 5126,
      "count": 28256,
      "max": [
        1.472116231918335,
        1.6627697944641113,
        3.8463571071624756
      ],
      "min": [
        -1.6315525770187378,
        -1.6794207096099854,
        1.253716230392456
      ],
      "type": "VEC3"
    },
    {
      "bufferView": 2,
      "byteOffset": 2855088,
      "componentType": 5126,
      "count": 28256,
      "type": "VEC3"
    },
    {
      "bufferView": 3,
      "byteOffset": 1677344,
      "componentType": 5126,
      "count": 28256,
      "type": "VEC4"
    },
    {
      "bufferView": 1,
      "byteOffset": 2516016,
      "componentType": 5126,
      "count": 28256,
      "type": "VEC2"
    },
    {
      "bufferView": 1,
      "byteOffset": 2742064,
      "componentType": 5126,
      "count": 28256,
      "type": "VEC2"
    },
    {
      "bufferView": 1,
      "byteOffset": 2968112,
      "componentType": 5126,
      "count": 28256,
      "type": "VEC2"
    },
    {
      "bufferView": 0,
      "byteOffset": 1038372,
      "componentType": 5125,
      "count": 84105,
      "type": "SCALAR"
    }
  ],
  "asset": {
    "generator": "fab-model-conversion",
    "version": "2.0"
  },
  "bufferViews": [
    {
      "buffer": 0,
      "byteLength": 1374792,
      "target": 34963
    },
    {
      "buffer": 0,
      "byteLength": 3194160,
      "byteOffset": 1374792,
      "byteStride": 8,
      "target": 34962
    },
    {
      "buffer": 0,
      "byteLength": 3194160,
      "byteOffset": 4568952,
      "byteStride": 12,
      "target": 34962
    },
    {
      "buffer": 0,
      "byteLength": 2129440,
      "byteOffset": 7763112,
      "byteStride": 16,
      "target": 34962
    }
  ],
  "buffers": [
    {
      "byteLength": 9892552,
      "uri": "scene.bin"
    }
  ],
  "images": [
    {
      "uri": "textures/leaves_baseColor.png"
    },
    {
      "uri": "textures/leaves_metallicRoughness.png"
    },
    {
      "uri": "textures/leaves_normal.png"
    },
    {
      "uri": "textures/tree_trunk_baseColor.png"
    },
    {
      "uri": "textures/tree_trunk_metallicRoughness.png"
    },
    {
      "uri": "textures/tree_trunk_normal.png"
    }
  ],
  "materials": [
    {
      "doubleSided": true,
      "name": "leaves",
      "normalTexture": {
        "index": 2
      },
      "pbrMetallicRoughness": {
        "baseColorTexture": {
          "index": 0
        },
        "metallicFactor": 0.0,
        "metallicRoughnessTexture": {
          "index": 1
        }
      }
    },
    {
      "doubleSided": true,
      "name": "tree_trunk",
      "normalTexture": {
        "index": 5
      },
      "pbrMetallicRoughness": {
        "baseColorTexture": {
          "index": 3
        },
        "metallicFactor": 0.0,
        "metallicRoughnessTexture": {
          "index": 4
        }
      }
    }
  ],
  "meshes": [
    {
      "name": "leaves_leaves_0",
      "primitives": [
        {
          "attributes": {
            "NORMAL": 1,
            "POSITION": 0,
            "TANGENT": 2,
            "TEXCOORD_0": 3,
            "TEXCOORD_1": 4,
            "TEXCOORD_2": 5
          },
          "indices": 6,
          "material": 0,
          "mode": 4
        }
      ]
    },
    {
      "name": "tree trunk_tree trunk_0",
      "primitives": [
        {
          "attributes": {
            "NORMAL": 8,
            "POSITION": 7,
            "TANGENT": 9,
            "TEXCOORD_0": 10,
            "TEXCOORD_1": 11,
            "TEXCOORD_2": 12
          },
          "indices": 13,
          "material": 1,
          "mode": 4
        }
      ]
    },
    {
      "name": "tree trunk_tree trunk_0",
      "primitives": [
        {
          "attributes": {
            "NORMAL": 15,
            "POSITION": 14,
            "TANGENT": 16,
            "TEXCOORD_0": 17,
            "TEXCOORD_1": 18,
            "TEXCOORD_2": 19
          },
          "indices": 20,
          "material": 1,
          "mode": 4
        }
      ]
    }
  ],
  "nodes": [
    {
      "children": [
        1
      ],
      "matrix": [
        1.0,
        0.0,
        0.0,
        0.0,
        0.0,
        2.220446049250313e-16,
        -1.0,
        0.0,
        0.0,
        1.0,
        2.220446049250313e-16,
        0.0,
        0.0,
        0.0,
        0.0,
        1.0
      ],
      "name": "Sketchfab_model"
    },
    {
      "children": [
        2
      ],
      "matrix": [
        0.009999999776482582,
        0.0,
        0.0,
        0.0,
        0.0,
        0.0,
        0.009999999776482582,
        0.0,
        0.0,
        -0.009999999776482582,
        0.0,
        0.0,
        0.0,
        0.0,
        0.0,
        1.0
      ],
      "name": "7576329f510e400a991bff95d28dd570.fbx"
    },
    {
      "children": [
        3,
        5
      ],
      "name": "RootNode"
    },
    {
      "children": [
        4
      ],
      "matrix": [
        100.0,
        0.0,
        0.0,
        0.0,
        0.0,
        -1.629206793918314e-05,
        -99.99999999999868,
        0.0,
        0.0,
        99.99999999999868,
        -1.629206793918314e-05,
        0.0,
        0.0,
        0.0,
        0.0,
        1.0
      ],
      "name": "leaves"
    },
    {
      "mesh": 0,
      "name": "leaves_leaves_0"
    },
    {
      "children": [
        6,
        7
      ],
      "matrix": [
        100.0,
        0.0,
        0.0,
        0.0,
        0.0,
        -1.629206793918314e-05,
        -99.99999999999868,
        0.0,
        0.0,
        99.99999999999868,
        -1.629206793918314e-05,
        0.0,
        0.0,
        0.0,
        0.0,
        1.0
      ],
      "name": "tree trunk"
    },
    {
      "mesh": 1,
      "name": "tree trunk_tree trunk_0"
    },
    {
      "mesh": 2,
      "name": "tree trunk_tree trunk_0"
    }
  ],
  "samplers": [
    {
      "magFilter": 9729,
      "minFilter": 9987,
      "wrapS": 10497,
      "wrapT": 10497
    }
  ],
  "scene": 0,
  "scenes": [
    {
      "name": "Sketchfab_Scene",
      "nodes": [
        0
      ]
    }
  ],
  "textures": [
    {
      "sampler": 0,
      "source": 0
    },
    {
      "sampler": 0,
      "source": 1
    },
    {
      "sampler": 0,
      "source": 2
    },
    {
      "sampler": 0,
      "source": 3
    },
    {
      "sampler": 0,
      "source": 4
    },
    {
      "sampler": 0,
      "source": 5
    }
  ]
}
