{
  "accessors": [
    {
      "bufferView": 2,
      "componentType": 5126,
      "count": 4534,
      "max": [
        0.8008622527122498,
        0.9102132320404053,
        1.2717283964157104
      ],
      "min": [
        -0.7643623948097229,
        -0.7616985440254211,
        -0.02865159511566162
      ],
      "type": "VEC3"
    },
    {
      "bufferView": 2,
      "byteOffset": 54408,
      "componentType": 5126,
      "count": 4534,
      "type": "VEC3"
    },
    {
      "bufferView": 3,
      "componentType": 5126,
      "count": 4534,
      "type": "VEC4"
    },
    {
      "bufferView": 1,
      "componentType": 5126,
      "count": 4534,
      "type": "VEC2"
    },
    {
      "bufferView": 1,
      "byteOffset": 36272,
      "componentType": 5126,
      "count": 4534,
      "type": "VEC2"
    },
    {
      "bufferView": 0,
      "componentType": 5125,
      "count": 23658,
      "type": "SCALAR"
    },
    {
      "bufferView": 2,
      "byteOffset": 108816,
      "componentType": 5126,
      "count": 2012,
      "max": [
        0.5437796711921692,
        0.48085591197013855,
        0.2974337935447693
      ],
      "min": [
        -0.48349499702453613,
        -0.5642403364181519,
        -0.122123584151268
      ],
      "type": "VEC3"
    },
    {
      "bufferView": 2,
      "byteOffset": 132960,
      "componentType": 5126,
      "count": 2012,
      "type": "VEC3"
    },
    {
      "bufferView": 3,
      "byteOffset": 72544,
      "componentType": 5126,
      "count": 2012,
      "type": "VEC4"
    },
    {
      "bufferView": 1,
      "byteOffset": 72544,
      "componentType": 5126,
      "count": 2012,
      "type": "VEC2"
    },
    {
      "bufferView": 1,
      "byteOffset": 88640,
      "componentType": 5126,
      "count": 2012,
      "type": "VEC2"
    },
    {
      "bufferView": 0,
      "byteOffset": 94632,
      "componentType": 5125,
      "count": 10722,
      "type": "SCALAR"
    }
  ],
  "asset": {
    "generator": "fab-model-conversion",
    "version": "2.0"
  },
  "bufferViews": [
    {
      "buffer": 0,
      "byteLength": 137520,
      "target": 34963
    },
    {
      "buffer": 0,
      "byteLength": 104736,
      "byteOffset": 137520,
      "byteStride": 8,
      "target": 34962
    },
    {
      "buffer": 0,
      "byteLength": 157104,
      "byteOffset": 242256,
      "byteStride": 12,
      "target": 34962
    },
    {
      "buffer": 0,
      "byteLength": 104736,
      "byteOffset": 399360,
      "byteStride": 16,
      "target": 34962
    }
  ],
  "buffers": [
    {
      "byteLength": 504096,
      "uri": "scene.bin"
    }
  ],
  "images": [
    {
      "uri": "textures/pumpkin_mat_baseColor.jpeg"
    },
    {
      "uri": "textures/pumpkin_mat_metallicRoughness.jpeg"
    },
    {
      "uri": "textures/pumpkin_mat_normal.jpeg"
    }
  ],
  "materials": [
    {
      "doubleSided": true,
      "name": "pumpkin_mat",
      "normalTexture": {
        "index": 2
      },
      "pbrMetallicRoughness": {
        "baseColorTexture": {
          "index": 0
        },
        "metallicFactor": 0.0,
        "metallicRoughnessTexture": {
          "index": 1
        }
      }
    }
  ],
  "meshes": [
    {
      "name": "pumpkin_head_pumpkin_mat_0",
      "primitives": [
        {
          "attributes": {
            "NORMAL": 1,
            "POSITION": 0,
            "TANGENT": 2,
            "TEXCOORD_0": 3,
            "TEXCOORD_1": 4
          },
          "indices": 5,
          "material": 0,
          "mode": 4
        }
      ]
    },
    {
      "name": "pumpkin_lid_pumpkin_mat_0",
      "primitives": [
        {
          "attributes": {
            "NORMAL": 7,
            "POSITION": 6,
            "TANGENT": 8,
            "TEXCOORD_0": 9,
            "TEXCOORD_1": 10
          },
          "indices": 11,
          "material": 0,
          "mode": 4
        }
      ]
    }
  ],
  "nodes": [
    {
      "children": [
        1
      ],
      "matrix": [
        1.0,
        0.0,
        0.0,
        0.0,
        0.0,
        2.220446049250313e-16,
        -1.0,
        0.0,
        0.0,
        1.0,
        2.220446049250313e-16,
        0.0,
        0.0,
        0.0,
        0.0,
        1.0
      ],
      "name": "Sketchfab_model"
    },
    {
      "children": [
        2
      ],
      "matrix": [
        0.009999999776482582,
        0.0,
        0.0,
        0.0,
        0.0,
        0.0,
        0.009999999776482582,
        0.0,
        0.0,
        -0.009999999776482582,
        0.0,
        0.0,
        0.0,
        0.0,
        0.0,
        1.0
      ],
      "name": "c5c68bec5b4e4497aaf49c3d2f127485.fbx"
    },
    {
      "children": [
        3
      ],
      "name": "RootNode"
    },
    {
      "children": [
        4,
        5
      ],
      "matrix": [
        100.0,
        0.0,
        0.0,
        0.0,
        -0.0,
        -1.629206793918314e-05,
        -99.99999999999868,
        0.0,
        0.0,
        99.99999999999868,
        -1.629206793918314e-05,
        0.0,
        -9.844908714294434,
        -83.24429321289063,
        -7.8705668449401855,
        1.0
      ],
      "name": "pumpkin_head"
    },
    {
      "mesh": 0,
      "name": "pumpkin_head_pumpkin_mat_0"
    },
    {
      "children": [
        6
      ],
      "matrix": [
        1.0,
        0.0,
        0.0,
        0.0,
        0.0,
        1.0,
        -2.646977960169688e-23,
        0.0,
        0.0,
        2.646977960169688e-23,
        1.0,
        0.0,
        -0.07492884248495102,
        0.023424535989761353,
        1.0365296602249146,
        1.0
      ],
      "name": "pumpkin_lid"
    },
    {
      "mesh": 1,
      "name": "pumpkin_lid_pumpkin_mat_0"
    }
  ],
  "samplers": [
    {
      "magFilter": 9729,
      "minFilter": 9987,
      "wrapS": 10497,
      "wrapT": 10497
    }
  ],
  "scene": 0,
  "scenes": [
    {
      "name": "Sketchfab_Scene",
      "nodes": [
        0
      ]
    }
  ],
  "textures": [
    {
      "sampler": 0,
      "source": 0
    },
    {
      "sampler": 0,
      "source": 1
    },
    {
      "sampler": 0,
      "source": 2
    }
  ]
}
