{
  "accessors": [
    {
      "bufferView": 2,
      "componentType": 5126,
      "count": 976,
      "max": [
        144.8339385986328,
        1157.8153076171875,
        212.21658325195313
      ],
      "min": [
        -190.47853088378906,
        -0.7890933752059937,
        -193.88951110839844
      ],
      "type": "VEC3"
    },
    {
      "bufferView": 2,
      "byteOffset": 11712,
      "componentType": 5126,
      "count": 976,
      "type": "VEC3"
    },
    {
      "bufferView": 3,
      "componentType": 5126,
      "count": 976,
      "type": "VEC4"
    },
    {
      "bufferView": 1,
      "componentType": 5126,
      "count": 976,
      "type": "VEC2"
    },
    {
      "bufferView": 1,
      "byteOffset": 7808,
      "componentType": 5126,
      "count": 976,
      "type": "VEC2"
    },
    {
      "bufferView": 1,
      "byteOffset": 15616,
      "componentType": 5126,
      "count": 976,
      "type": "VEC2"
    },
    {
      "bufferView": 0,
      "componentType": 5125,
      "count": 3606,
      "type": "SCALAR"
    },
    {
      "bufferView": 2,
      "byteOffset": 23424,
      "componentType": 5126,
      "count": 10,
      "max": [
        28.303939819335938,
        1072.189453125,
        -5.748075485229492
      ],
      "min": [
        18.289812088012695,
        1067.8887939453125,
        -15.646745681762695
      ],
      "type": "VEC3"
    },
    {
      "bufferView": 2,
      "byteOffset": 23544,
      "componentType": 5126,
      "count": 10,
      "type": "VEC3"
    },
    {
      "bufferView": 3,
      "byteOffset": 15616,
      "componentType": 5126,
      "count": 10,
      "type": "VEC4"
    },
    {
      "bufferView": 1,
      "byteOffset": 23424,
      "componentType": 5126,
      "count": 10,
      "type": "VEC2"
    },
    {
      "bufferView": 1,
      "byteOffset": 23504,
      "componentType": 5126,
      "count": 10,
      "type": "VEC2"
    },
    {
      "bufferView": 1,
      "byteOffset": 23584,
      "componentType": 5126,
      "count": 10,
      "type": "VEC2"
    },
    {
      "bufferView": 0,
      "byteOffset": 14424,
      "componentType": 5125,
      "count": 27,
      "type": "SCALAR"
    },
    {
      "bufferView": 2,
      "byteOffset": 23664,
      "componentType": 5126,
      "count": 1320,
      "max": [
        255.58836364746094,
        1244.17431640625,
        346.5523986816406
      ],
      "min": [
        -300.476318359375,
        199.93685913085938,
        -306.8379821777344
      ],
      "type": "VEC3"
    },
    {
      "bufferView": 2,
      "byteOffset": 39504,
      "componentType": 5126,
      "count": 1320,
      "type": "VEC3"
    },
    {
      "bufferView": 3,
      "byteOffset": 15776,
      "componentType": 5126,
      "count": 1320,
      "type": "VEC4"
    },
    {
      "bufferView": 1,
      "byteOffset": 23664,
      "componentType": 5126,
      "count": 1320,
      "type": "VEC2"
    },
    {
      "bufferView": 1,
      "byteOffset": 34224,
      "componentType": 5126,
      "count": 1320,
      "type": "VEC2"
    },
    {
      "bufferView": 1,
      "byteOffset": 44784,
      "componentType": 5126,
      "count": 1320,
      "type": "VEC2"
    },
    {
      "bufferView": 1,
      "byteOffset": 55344,
      "componentType": 5126,
      "count": 1320,
      "type": "VEC2"
    },
    {
      "bufferView": 1,
      "byteOffset": 65904,
      "componentType": 5126,
      "count": 1320,
      "type": "VEC2"
    },
    {
      "bufferView": 0,
      "byteOffset": 14532,
      "componentType": 5125,
      "count": 4320,
      "type": "SCALAR"
    }
  ],
  "asset": {
    "generator": "fab-model-conversion",
    "version": "2.0"
  },
  "bufferViews": [
    {
      "buffer": 0,
      "byteLength": 31812,
      "target": 34963
    },
    {
      "buffer": 0,
      "byteLength": 76464,
      "byteOffset": 31812,
      "byteStride": 8,
      "target": 34962
    },
    {
      "buffer": 0,
      "byteLength": 55344,
      "byteOffset": 108276,
      "byteStride": 12,
      "target": 34962
    },
    {
      "buffer": 0,
      "byteLength": 36896,
      "byteOffset": 163620,
      "byteStride": 16,
      "target": 34962
    }
  ],
  "buffers": [
    {
      "byteLength": 200516,
      "uri": "scene.bin"
    }
  ],
  "images": [
    {
      "uri": "textures/Bark_Populier_Fall_02_Mat_baseColor.png"
    },
    {
      "uri": "textures/Bark_Populier_Fall_02_Mat_normal.png"
    },
    {
      "uri": "textures/Cap_Fall_Fall_02_Mat_baseColor.png"
    },
    {
      "uri": "textures/Cap_Fall_Fall_02_Mat_normal.png"
    },
    {
      "uri": "textures/L_P_Populier_Fall_02_Mat_baseColor.png"
    },
    {
      "uri": "textures/L_P_Populier_Fall_02_Mat_metallicRoughness.png"
    },
    {
      "uri": "textures/L_P_Populier_Fall_02_Mat_normal.png"
    }
  ],
  "materials": [
    {
      "doubleSided": true,
      "name": "Bark_Populier_Fall_02_Mat",
      "normalTexture": {
        "index": 1,
        "scale": 0.5
      },
      "pbrMetallicRoughness": {
        "baseColorTexture": {
          "index": 0
        },
        "metallicFactor": 0.0,
        "roughnessFactor": 0.75
      }
    },
    {
      "doubleSided": true,
      "name": "Cap_Fall_Fall_02_Mat",
      "normalTexture": {
        "index": 3,
        "scale": 0.5
      },
      "pbrMetallicRoughness": {
        "baseColorTexture": {
          "index": 2
        },
        "metallicFactor": 0.0,
        "roughnessFactor": 0.75
      }
    },
    {
      "alphaCutoff": 0.25,
      "alphaMode": "MASK",
      "doubleSided": true,
      "name": "L_P_Populier_Fall_02_Mat",
      "normalTexture": {
        "index": 6,
        "scale": 0.5
      },
      "pbrMetallicRoughness": {
        "baseColorTexture": {
          "index": 4
        },
        "metallicFactor": 0.0,
        "metallicRoughnessTexture": {
          "index": 5
        }
      }
    }
  ],
  "meshes": [
    {
      "name": "Object_0",
      "primitives": [
        {
          "attributes": {
            "NORMAL": 1,
            "POSITION": 0,
            "TANGENT": 2,
            "TEXCOORD_0": 3,
            "TEXCOORD_1": 4,
            "TEXCOORD_2": 5
          },
          "indices": 6,
          "material": 0,
          "mode": 4
        }
      ]
    },
    {
      "name": "Object_1",
      "primitives": [
        {
          "attributes": {
            "NORMAL": 8,
            "POSITION": 7,
            "TANGENT": 9,
            "TEXCOORD_0": 10,
            "TEXCOORD_1": 11,
            "TEXCOORD_2": 12
          },
          "indices": 13,
          "material": 1,
          "mode": 4
        }
      ]
    },
    {
      "name": "Object_2",
      "primitives": [
        {
          "attributes": {
            "NORMAL": 15,
            "POSITION": 14,
            "TANGENT": 16,
            "TEXCOORD_0": 17,
            "TEXCOORD_1": 18,
            "TEXCOORD_2": 19,
            "TEXCOORD_3": 20,
            "TEXCOORD_4": 21
          },
          "indices": 22,
          "material": 2,
          "mode": 4
        }
      ]
    }
  ],
  "nodes": [
    {
      "children": [
        1
      ],
      "matrix": [
        1.0,
        0.0,
        0.0,
        0.0,
        0.0,
        2.220446049250313e-16,
        -1.0,
        0.0,
        0.0,
        1.0,
        2.220446049250313e-16,
        0.0,
        0.0,
        0.0,
        0.0,
        1.0
      ],
      "name": "Sketchfab_model"
    },
    {
      "children": [
        2
      ],
      "name": "root"
    },
    {
      "children": [
        3
      ],
      "matrix": [
        1.0,
        0.0,
        0.0,
        0.0,
        0.0,
        2.220446049250313e-16,
        1.0,
        0.0,
        0.0,
        -1.0,
        2.220446049250313e-16,
        0.0,
        0.0,
        0.0,
        0.0,
        1.0
      ],
      "name": "GLTF_SceneRootNode"
    },
    {
      "children": [
        4,
        6,
        8
      ],
      "matrix": [
        0.009999999776482582,
        0.0,
        0.0,
        0.0,
        0.0,
        0.009999999776482582,
        0.0,
        0.0,
        0.0,
        0.0,
        0.009999999776482582,
        0.0,
        0.0,
        0.0,
        32.08188247680664,
        1.0
      ],
      "name": "Grijze_Populier_Fall_Low_ME_2K_P_3"
    },
    {
      "children": [
        5
      ],
      "matrix": [
        1.0,
        0.0,
        0.0,
        0.0,
        0.0,
        1.0,
        0.0,
        0.0,
        0.0,
        0.0,
        1.0,
        0.0,
        20.279298782348633,
        0.0,
        -3200.294921875,
        1.0
      ],
      "name": "Bark_Populier_Fall_02_0"
    },
    {
      "mesh": 0,
      "name": "Object_5"
    },
    {
      "children": [
        7
      ],
      "matrix": [
        1.0,
        0.0,
        0.0,
        0.0,
        0.0,
        1.0,
        0.0,
        0.0,
        0.0,
        0.0,
        1.0,
        0.0,
        20.279298782348633,
        0.0,
        -3200.294921875,
        1.0
      ],
      "name": "Cap_Fall_Fall_02_1"
    },
    {
      "mesh": 1,
      "name": "Object_7"
    },
    {
      "children": [
        9
      ],
      "matrix": [
        1.0,
        0.0,
        0.0,
        0.0,
        0.0,
        1.0,
        0.0,
        0.0,
        0.0,
        0.0,
        1.0,
        0.0,
        20.279298782348633,
        0.0,
        -3200.294921875,
        1.0
      ],
      "name": "L_P_Populier_Fall_02_2"
    },
    {
      "mesh": 2,
      "name": "Object_9"
    }
  ],
  "samplers": [
    {
      "magFilter": 9729,
      "minFilter": 9987,
      "wrapS": 10497,
      "wrapT": 10497
    }
  ],
  "scene": 0,
  "scenes": [
    {
      "name": "Sketchfab_Scene",
      "nodes": [
        0
      ]
    }
  ],
  "textures": [
    {
      "sampler": 0,
      "source": 0
    },
    {
      "sampler": 0,
      "source": 1
    },
    {
      "sampler": 0,
      "source": 2
    },
    {
      "sampler": 0,
      "source": 3
    },
    {
      "sampler": 0,
      "source": 4
    },
    {
      "sampler": 0,
      "source": 5
    },
    {
      "sampler": 0,
      "source": 6
    }
  ]
}
