{
  "accessors": [
    {
      "bufferView": 2,
      "componentType": 5126,
      "count": 208,
      "max": [
        0.4137049913406372,
        1.0158799886703491,
        0.10484959185123444
      ],
      "min": [
        -0.4137049913406372,
        -1.0171068906784058,
        -0.45975518226623535
      ],
      "type": "VEC3"
    },
    {
      "bufferView": 2,
      "byteOffset": 2496,
      "componentType": 5126,
      "count": 208,
      "type": "VEC3"
    },
    {
      "bufferView": 3,
      "componentType": 5126,
      "count": 208,
      "type": "VEC4"
    },
    {
      "bufferView": 1,
      "componentType": 5126,
      "count": 208,
      "type": "VEC2"
    },
    {
      "bufferView": 1,
      "byteOffset": 1664,
      "componentType": 5126,
      "count": 208,
      "type": "VEC2"
    },
    {
      "bufferView": 1,
      "byteOffset": 3328,
      "componentType": 5126,
      "count": 208,
      "type": "VEC2"
    },
    {
      "bufferView": 0,
      "componentType": 5125,
      "count": 336,
      "type": "SCALAR"
    },
    {
      "bufferView": 2,
      "byteOffset": 4992,
      "componentType": 5126,
      "count": 176,
      "max": [
        0.7167494893074036,
        1.074491262435913,
        0.15776941180229187
      ],
      "min": [
        -0.7183812260627747,
        -1.0748350620269775,
        -0.40683528780937195
      ],
      "type": "VEC3"
    },
    {
      "bufferView": 2,
      "byteOffset": 7104,
      "componentType": 5126,
      "count": 176,
      "type": "VEC3"
    },
    {
      "bufferView": 3,
      "byteOffset": 3328,
      "componentType": 5126,
      "count": 176,
      "type": "VEC4"
    },
    {
      "bufferView": 1,
      "byteOffset": 4992,
      "componentType": 5126,
      "count": 176,
      "type": "VEC2"
    },
    {
      "bufferView": 1,
      "byteOffset": 6400,
      "componentType": 5126,
      "count": 176,
      "type": "VEC2"
    },
    {
      "bufferView": 1,
      "byteOffset": 7808,
      "componentType": 5126,
      "count": 176,
      "type": "VEC2"
    },
    {
      "bufferView": 0,
      "byteOffset": 1344,
      "componentType": 5125,
      "count": 264,
      "type": "SCALAR"
    }
  ],
  "asset": {
    "generator": "fab-model-conversion",
    "version": "2.0"
  },
  "bufferViews": [
    {
      "buffer": 0,
      "byteLength": 2400,
      "target": 34963
    },
    {
      "buffer": 0,
      "byteLength": 9216,
      "byteOffset": 2400,
      "byteStride": 8,
      "target": 34962
    },
    {
      "buffer": 0,
      "byteLength": 9216,
      "byteOffset": 11616,
      "byteStride": 12,
      "target": 34962
    },
    {
      "buffer": 0,
      "byteLength": 6144,
      "byteOffset": 20832,
      "byteStride": 16,
      "target": 34962
    }
  ],
  "buffers": [
    {
      "byteLength": 26976,
      "uri": "scene.bin"
    }
  ],
  "images": [
    {
      "uri": "textures/Caixao3_baseColor.png"
    },
    {
      "uri": "textures/Caixao3_metallicRoughness.png"
    },
    {
      "uri": "textures/Caixao3_normal.png"
    },
    {
      "uri": "textures/Caixao4_baseColor.png"
    },
    {
      "uri": "textures/Caixao4_metallicRoughness.png"
    },
    {
      "uri": "textures/Caixao4_normal.png"
    }
  ],
  "materials": [
    {
      "doubleSided": true,
      "name": "Caixao3",
      "normalTexture": {
        "index": 2
      },
      "pbrMetallicRoughness": {
        "baseColorTexture": {
          "index": 0
        },
        "metallicFactor": 0.0,
        "metallicRoughnessTexture": {
          "index": 1
        }
      }
    },
    {
      "doubleSided": true,
      "name": "Caixao4",
      "normalTexture": {
        "index": 5
      },
      "pbrMetallicRoughness": {
        "baseColorTexture": {
          "index": 3
        },
        "metallicFactor": 0.0,
        "metallicRoughnessTexture": {
          "index": 4
        }
      }
    }
  ],
  "meshes": [
    {
      "name": "Coffin 3_Caixao3_0",
      "primitives": [
        {
          "attributes": {
            "NORMAL": 1,
            "POSITION": 0,
            "TANGENT": 2,
            "TEXCOORD_0": 3,
            "TEXCOORD_1": 4,
            "TEXCOORD_2": 5
          },
          "indices": 6,
          "material": 0,
          "mode": 4
        }
      ]
    },
    {
      "name": "Coffin 4_Caixao4_0",
      "primitives": [
        {
          "attributes": {
            "NORMAL": 8,
            "POSITION": 7,
            "TANGENT": 9,
            "TEXCOORD_0": 10,
            "TEXCOORD_1": 11,
            "TEXCOORD_2": 12
          },
          "indices": 13,
          "material": 1,
          "mode": 4
        }
      ]
    }
  ],
  "nodes": [
    {
      "children": [
        1
      ],
      "matrix": [
        1.0,
        0.0,
        0.0,
        0.0,
        0.0,
        2.220446049250313e-16,
        -1.0,
        0.0,
        0.0,
        1.0,
        2.220446049250313e-16,
        0.0,
        0.0,
        0.0,
        0.0,
        1.0
      ],
      "name": "Sketchfab_model"
    },
    {
      "children": [
        2
      ],
      "matrix": [
        1.0,
        0.0,
        0.0,
        0.0,
        0.0,
        0.0,
        1.0,
        0.0,
        0.0,
        -1.0,
        0.0,
        0.0,
        0.0,
        0.0,
        0.0,
        1.0
      ],
      "name": "9c22911b9ca74c2e96fe5ba66a954dc7.fbx"
    },
    {
      "children": [
        3,
        5
      ],
      "name": "RootNode"
    },
    {
      "children": [
        4
      ],
      "matrix": [
        -0.9999999999999964,
        1.2246467991473515e-16,
        8.742278000372476e-08,
        0.0,
        -3.698906412640348e-15,
        0.999999999999999,
        -4.371138840920244e-08,
        0.0,
        -8.742278000372468e-08,
        -4.37113884092026e-08,
        -0.9999999999999956,
        0.0,
        -5.173162460327148,
        0.9999899864196777,
        0.0,
        1.0
      ],
      "name": "Coffin 3"
    },
    {
      "mesh": 0,
      "name": "Coffin 3_Caixao3_0"
    },
    {
      "children": [
        6
      ],
      "matrix": [
        -0.9999999999999964,
        1.2246467991473515e-16,
        8.742278000372476e-08,
        0.0,
        -3.698906412640348e-15,
        0.999999999999999,
        -4.371138840920244e-08,
        0.0,
        -8.742278000372468e-08,
        -4.37113884092026e-08,
        -0.9999999999999956,
        0.0,
        -3.5429208278656006,
        0.9999899864196777,
        0.0,
        1.0
      ],
      "name": "Coffin 4"
    },
    {
      "mesh": 1,
      "name": "Coffin 4_Caixao4_0"
    }
  ],
  "samplers": [
    {
      "magFilter": 9729,
      "minFilter": 9987,
      "wrapS": 10497,
      "wrapT": 10497
    }
  ],
  "scene": 0,
  "scenes": [
    {
      "name": "Sketchfab_Scene",
      "nodes": [
        0
      ]
    }
  ],
  "textures": [
    {
      "sampler": 0,
      "source": 0
    },
    {
      "sampler": 0,
      "source": 1
    },
    {
      "sampler": 0,
      "source": 2
    },
    {
      "sampler": 0,
      "source": 3
    },
    {
      "sampler": 0,
      "source": 4
    },
    {
      "sampler": 0,
      "source": 5
    }
  ]
}
