{
    "asset": {
        "generator": "Khronos glTF Blender I/O v3.6.27",
        "version": "2.0"
    },
    "scene": 0,
    "scenes": [
        {
            "name": "Scene",
            "nodes": [
                0,
                1,
                2,
                3,
                4,
                5,
                6,
                7,
                8,
                9,
                10,
                11,
                12,
                13,
                14,
                15,
                16,
                17,
                18,
                19,
                20,
                21,
                22,
                23,
                24,
                25,
                26,
                27,
                28,
                29,
                30,
                31
            ]
        }
    ],
    "nodes": [
        {
            "mesh": 0,
            "name": "SM_vdknafgha_VarA",
            "rotation": [
                0.7071068286895752,
                0,
                0,
                0.7071068286895752
            ],
            "scale": [
                0.009999999776482582,
                0.009999999776482582,
                0.009999999776482582
            ]
        },
        {
            "mesh": 1,
            "name": "SM_vdknafgha_VarA_LOD1",
            "rotation": [
                0.7071068286895752,
                0,
                0,
                0.7071068286895752
            ],
            "scale": [
                0.009999999776482582,
                0.009999999776482582,
                0.009999999776482582
            ],
            "extras": {
                "lod": {
                    "index": 1,
                    "mesh": "SM_vdknafgha_VarA"
                }
            }
        },
        {
            "mesh": 2,
            "name": "SM_vdknafgha_VarA_LOD2",
            "rotation": [
                0.7071068286895752,
                0,
                0,
                0.7071068286895752
            ],
            "scale": [
                0.009999999776482582,
                0.009999999776482582,
                0.009999999776482582
            ],
            "extras": {
                "lod": {
                    "index": 2,
                    "mesh": "SM_vdknafgha_VarA"
                }
            }
        },
        {
            "mesh": 3,
            "name": "SM_vdknafgha_VarA_LOD3",
            "rotation": [
                0.7071068286895752,
                0,
                0,
                0.7071068286895752
            ],
            "scale": [
                0.009999999776482582,
                0.009999999776482582,
                0.009999999776482582
            ],
            "extras": {
                "lod": {
                    "index": 3,
                    "mesh": "SM_vdknafgha_VarA"
                }
            }
        },
        {
            "mesh": 4,
            "name": "SM_vdknafgha_VarB",
            "rotation": [
                0.7071068286895752,
                0,
                0,
                0.7071068286895752
            ],
            "scale": [
                0.009999999776482582,
                0.009999999776482582,
                0.009999999776482582
            ]
        },
        {
            "mesh": 5,
            "name": "SM_vdknafgha_VarB_LOD1",
            "rotation": [
                0.7071068286895752,
                0,
                0,
                0.7071068286895752
            ],
            "scale": [
                0.009999999776482582,
                0.009999999776482582,
                0.009999999776482582
            ],
            "extras": {
                "lod": {
                    "index": 1,
                    "mesh": "SM_vdknafgha_VarB"
                }
            }
        },
        {
            "mesh": 6,
            "name": "SM_vdknafgha_VarB_LOD2",
            "rotation": [
                0.7071068286895752,
                0,
                0,
                0.7071068286895752
            ],
            "scale": [
                0.009999999776482582,
                0.009999999776482582,
                0.009999999776482582
            ],
            "extras": {
                "lod": {
                    "index": 2,
                    "mesh": "SM_vdknafgha_VarB"
                }
            }
        },
        {
            "mesh": 7,
            "name": "SM_vdknafgha_VarB_LOD3",
            "rotation": [
                0.7071068286895752,
                0,
                0,
                0.7071068286895752
            ],
            "scale": [
                0.009999999776482582,
                0.009999999776482582,
                0.009999999776482582
            ],
            "extras": {
                "lod": {
                    "index": 3,
                    "mesh": "SM_vdknafgha_VarB"
                }
            }
        },
        {
            "mesh": 8,
            "name": "SM_vdknafgha_VarC",
            "rotation": [
                0.7071068286895752,
                0,
                0,
                0.7071068286895752
            ],
            "scale": [
                0.009999999776482582,
                0.009999999776482582,
                0.009999999776482582
            ]
        },
        {
            "mesh": 9,
            "name": "SM_vdknafgha_VarC_LOD1",
            "rotation": [
                0.7071068286895752,
                0,
                0,
                0.7071068286895752
            ],
            "scale": [
                0.009999999776482582,
                0.009999999776482582,
                0.009999999776482582
            ],
            "extras": {
                "lod": {
                    "index": 1,
                    "mesh": "SM_vdknafgha_VarC"
                }
            }
        },
        {
            "mesh": 10,
            "name": "SM_vdknafgha_VarC_LOD2",
            "rotation": [
                0.7071068286895752,
                0,
                0,
                0.7071068286895752
            ],
            "scale": [
                0.009999999776482582,
                0.009999999776482582,
                0.009999999776482582
            ],
            "extras": {
                "lod": {
                    "index": 2,
                    "mesh": "SM_vdknafgha_VarC"
                }
            }
        },
        {
            "mesh": 11,
            "name": "SM_vdknafgha_VarC_LOD3",
            "rotation": [
                0.7071068286895752,
                0,
                0,
                0.7071068286895752
            ],
            "scale": [
                0.009999999776482582,
                0.009999999776482582,
                0.009999999776482582
            ],
            "extras": {
                "lod": {
                    "index": 3,
                    "mesh": "SM_vdknafgha_VarC"
                }
            }
        },
        {
            "mesh": 12,
            "name": "SM_vdknafgha_VarD",
            "rotation": [
                0.7071068286895752,
                0,
                0,
                0.7071068286895752
            ],
            "scale": [
                0.009999999776482582,
                0.009999999776482582,
                0.009999999776482582
            ]
        },
        {
            "mesh": 13,
            "name": "SM_vdknafgha_VarD_LOD1",
            "rotation": [
                0.7071068286895752,
                0,
                0,
                0.7071068286895752
            ],
            "scale": [
                0.009999999776482582,
                0.009999999776482582,
                0.009999999776482582
            ],
            "extras": {
                "lod": {
                    "index": 1,
                    "mesh": "SM_vdknafgha_VarD"
                }
            }
        },
        {
            "mesh": 14,
            "name": "SM_vdknafgha_VarD_LOD2",
            "rotation": [
                0.7071068286895752,
                0,
                0,
                0.7071068286895752
            ],
            "scale": [
                0.009999999776482582,
                0.009999999776482582,
                0.009999999776482582
            ],
            "extras": {
                "lod": {
                    "index": 2,
                    "mesh": "SM_vdknafgha_VarD"
                }
            }
        },
        {
            "mesh": 15,
            "name": "SM_vdknafgha_VarD_LOD3",
            "rotation": [
                0.7071068286895752,
                0,
                0,
                0.7071068286895752
            ],
            "scale": [
                0.009999999776482582,
                0.009999999776482582,
                0.009999999776482582
            ],
            "extras": {
                "lod": {
                    "index": 3,
                    "mesh": "SM_vdknafgha_VarD"
                }
            }
        },
        {
            "mesh": 16,
            "name": "SM_vdknafgha_VarE",
            "rotation": [
                0.7071068286895752,
                0,
                0,
                0.7071068286895752
            ],
            "scale": [
                0.009999999776482582,
                0.009999999776482582,
                0.009999999776482582
            ]
        },
        {
            "mesh": 17,
            "name": "SM_vdknafgha_VarE_LOD1",
            "rotation": [
                0.7071068286895752,
                0,
                0,
                0.7071068286895752
            ],
            "scale": [
                0.009999999776482582,
                0.009999999776482582,
                0.009999999776482582
            ],
            "extras": {
                "lod": {
                    "index": 1,
                    "mesh": "SM_vdknafgha_VarE"
                }
            }
        },
        {
            "mesh": 18,
            "name": "SM_vdknafgha_VarE_LOD2",
            "rotation": [
                0.7071068286895752,
                0,
                0,
                0.7071068286895752
            ],
            "scale": [
                0.009999999776482582,
                0.009999999776482582,
                0.009999999776482582
            ],
            "extras": {
                "lod": {
                    "index": 2,
                    "mesh": "SM_vdknafgha_VarE"
                }
            }
        },
        {
            "mesh": 19,
            "name": "SM_vdknafgha_VarE_LOD3",
            "rotation": [
                0.7071068286895752,
                0,
                0,
                0.7071068286895752
            ],
            "scale": [
                0.009999999776482582,
                0.009999999776482582,
                0.009999999776482582
            ],
            "extras": {
                "lod": {
                    "index": 3,
                    "mesh": "SM_vdknafgha_VarE"
                }
            }
        },
        {
            "mesh": 20,
            "name": "SM_vdknafgha_VarF",
            "rotation": [
                0.7071068286895752,
                0,
                0,
                0.7071068286895752
            ],
            "scale": [
                0.009999999776482582,
                0.009999999776482582,
                0.009999999776482582
            ]
        },
        {
            "mesh": 21,
            "name": "SM_vdknafgha_VarF_LOD1",
            "rotation": [
                0.7071068286895752,
                0,
                0,
                0.7071068286895752
            ],
            "scale": [
                0.009999999776482582,
                0.009999999776482582,
                0.009999999776482582
            ],
            "extras": {
                "lod": {
                    "index": 1,
                    "mesh": "SM_vdknafgha_VarF"
                }
            }
        },
        {
            "mesh": 22,
            "name": "SM_vdknafgha_VarF_LOD2",
            "rotation": [
                0.7071068286895752,
                0,
                0,
                0.7071068286895752
            ],
            "scale": [
                0.009999999776482582,
                0.009999999776482582,
                0.009999999776482582
            ],
            "extras": {
                "lod": {
                    "index": 2,
                    "mesh": "SM_vdknafgha_VarF"
                }
            }
        },
        {
            "mesh": 23,
            "name": "SM_vdknafgha_VarF_LOD3",
            "rotation": [
                0.7071068286895752,
                0,
                0,
                0.7071068286895752
            ],
            "scale": [
                0.009999999776482582,
                0.009999999776482582,
                0.009999999776482582
            ],
            "extras": {
                "lod": {
                    "index": 3,
                    "mesh": "SM_vdknafgha_VarF"
                }
            }
        },
        {
            "mesh": 24,
            "name": "SM_vdknafgha_VarG",
            "rotation": [
                0.7071068286895752,
                0,
                0,
                0.7071068286895752
            ],
            "scale": [
                0.009999999776482582,
                0.009999999776482582,
                0.009999999776482582
            ]
        },
        {
            "mesh": 25,
            "name": "SM_vdknafgha_VarG_LOD1",
            "rotation": [
                0.7071068286895752,
                0,
                0,
                0.7071068286895752
            ],
            "scale": [
                0.009999999776482582,
                0.009999999776482582,
                0.009999999776482582
            ],
            "extras": {
                "lod": {
                    "index": 1,
                    "mesh": "SM_vdknafgha_VarG"
                }
            }
        },
        {
            "mesh": 26,
            "name": "SM_vdknafgha_VarG_LOD2",
            "rotation": [
                0.7071068286895752,
                0,
                0,
                0.7071068286895752
            ],
            "scale": [
                0.009999999776482582,
                0.009999999776482582,
                0.009999999776482582
            ],
            "extras": {
                "lod": {
                    "index": 2,
                    "mesh": "SM_vdknafgha_VarG"
                }
            }
        },
        {
            "mesh": 27,
            "name": "SM_vdknafgha_VarG_LOD3",
            "rotation": [
                0.7071068286895752,
                0,
                0,
                0.7071068286895752
            ],
            "scale": [
                0.009999999776482582,
                0.009999999776482582,
                0.009999999776482582
            ],
            "extras": {
                "lod": {
                    "index": 3,
                    "mesh": "SM_vdknafgha_VarG"
                }
            }
        },
        {
            "mesh": 28,
            "name": "SM_vdknafgha_VarH",
            "rotation": [
                0.7071068286895752,
                0,
                0,
                0.7071068286895752
            ],
            "scale": [
                0.009999999776482582,
                0.009999999776482582,
                0.009999999776482582
            ]
        },
        {
            "mesh": 29,
            "name": "SM_vdknafgha_VarH_LOD1",
            "rotation": [
                0.7071068286895752,
                0,
                0,
                0.7071068286895752
            ],
            "scale": [
                0.009999999776482582,
                0.009999999776482582,
                0.009999999776482582
            ],
            "extras": {
                "lod": {
                    "index": 1,
                    "mesh": "SM_vdknafgha_VarH"
                }
            }
        },
        {
            "mesh": 30,
            "name": "SM_vdknafgha_VarH_LOD2",
            "rotation": [
                0.7071068286895752,
                0,
                0,
                0.7071068286895752
            ],
            "scale": [
                0.009999999776482582,
                0.009999999776482582,
                0.009999999776482582
            ],
            "extras": {
                "lod": {
                    "index": 2,
                    "mesh": "SM_vdknafgha_VarH"
                }
            }
        },
        {
            "mesh": 31,
            "name": "SM_vdknafgha_VarH_LOD3",
            "rotation": [
                0.7071068286895752,
                0,
                0,
                0.7071068286895752
            ],
            "scale": [
                0.009999999776482582,
                0.009999999776482582,
                0.009999999776482582
            ],
            "extras": {
                "lod": {
                    "index": 3,
                    "mesh": "SM_vdknafgha_VarH"
                }
            }
        }
    ],
    "materials": [
        {
            "alphaMode": "MASK",
            "doubleSided": true,
            "name": "MI_vdknafgha",
            "normalTexture": {
                "index": 0
            },
            "pbrMetallicRoughness": {
                "baseColorTexture": {
                    "index": 2
                },
                "metallicRoughnessTexture": {
                    "index": 1
                },
                "metallicFactor": 0
            },
            "extras": {
                "params": [
                    {
                        "Name": "Split Translucency Controls",
                        "Value": true
                    },
                    {
                        "Name": "use Growth Effect",
                        "Value": false
                    },
                    {
                        "Name": "Translucency Tint Leaves",
                        "Value": [
                            1,
                            1,
                            1,
                            1
                        ]
                    },
                    {
                        "Name": "Translucency Controls Leaves",
                        "Value": [
                            1,
                            0,
                            1,
                            0
                        ]
                    },
                    {
                        "Name": "Translucency Controls Branches",
                        "Value": [
                            0.800000011920929,
                            0,
                            0.6000000238418579,
                            0
                        ]
                    }
                ]
            }
        },
        {
            "alphaMode": "MASK",
            "doubleSided": true,
            "name": "MI_vdknafgha_Billboard",
            "normalTexture": {
                "index": 3
            },
            "pbrMetallicRoughness": {
                "baseColorTexture": {
                    "index": 4
                },
                "metallicFactor": 0,
                "roughnessFactor": 0.8
            },
            "extras": {
                "billboardFacingCamera": true,
                "params": [
                    {
                        "Name": "is Camera Facing Billboard",
                        "Value": true
                    },
                    {
                        "Name": "is Billboard",
                        "Value": true
                    }
                ]
            }
        }
    ],
    "meshes": [
        {
            "name": "SM_vdknafgha_VarA",
            "primitives": [
                {
                    "attributes": {
                        "POSITION": 1,
                        "TEXCOORD_0": 2,
                        "_wind": 0
                    },
                    "indices": 3,
                    "material": 0
                }
            ]
        },
        {
            "name": "SM_vdknafgha_VarA_LOD1",
            "primitives": [
                {
                    "attributes": {
                        "POSITION": 5,
                        "TEXCOORD_0": 6,
                        "_wind": 4
                    },
                    "indices": 7,
                    "material": 0
                }
            ]
        },
        {
            "name": "SM_vdknafgha_VarA_LOD2",
            "primitives": [
                {
                    "attributes": {
                        "POSITION": 9,
                        "TEXCOORD_0": 10,
                        "_wind": 8
                    },
                    "indices": 11,
                    "material": 0
                }
            ]
        },
        {
            "name": "SM_vdknafgha_VarA_LOD3",
            "primitives": [
                {
                    "attributes": {
                        "POSITION": 13,
                        "TEXCOORD_0": 14,
                        "_wind": 12
                    },
                    "indices": 15,
                    "material": 1
                }
            ]
        },
        {
            "name": "SM_vdknafgha_VarB",
            "primitives": [
                {
                    "attributes": {
                        "POSITION": 17,
                        "TEXCOORD_0": 18,
                        "_wind": 16
                    },
                    "indices": 19,
                    "material": 0
                }
            ]
        },
        {
            "name": "SM_vdknafgha_VarB_LOD1",
            "primitives": [
                {
                    "attributes": {
                        "POSITION": 21,
                        "TEXCOORD_0": 22,
                        "_wind": 20
                    },
                    "indices": 23,
                    "material": 0
                }
            ]
        },
        {
            "name": "SM_vdknafgha_VarB_LOD2",
            "primitives": [
                {
                    "attributes": {
                        "POSITION": 25,
                        "TEXCOORD_0": 26,
                        "_wind": 24
                    },
                    "indices": 27,
                    "material": 0
                }
            ]
        },
        {
            "name": "SM_vdknafgha_VarB_LOD3",
            "primitives": [
                {
                    "attributes": {
                        "POSITION": 29,
                        "TEXCOORD_0": 30,
                        "_wind": 28
                    },
                    "indices": 31,
                    "material": 1
                }
            ]
        },
        {
            "name": "SM_vdknafgha_VarC",
            "primitives": [
                {
                    "attributes": {
                        "POSITION": 33,
                        "TEXCOORD_0": 34,
                        "_wind": 32
                    },
                    "indices": 35,
                    "material": 0
                }
            ]
        },
        {
            "name": "SM_vdknafgha_VarC_LOD1",
            "primitives": [
                {
                    "attributes": {
                        "POSITION": 37,
                        "TEXCOORD_0": 38,
                        "_wind": 36
                    },
                    "indices": 39,
                    "material": 0
                }
            ]
        },
        {
            "name": "SM_vdknafgha_VarC_LOD2",
            "primitives": [
                {
                    "attributes": {
                        "POSITION": 41,
                        "TEXCOORD_0": 42,
                        "_wind": 40
                    },
                    "indices": 43,
                    "material": 0
                }
            ]
        },
        {
            "name": "SM_vdknafgha_VarC_LOD3",
            "primitives": [
                {
                    "attributes": {
                        "POSITION": 45,
                        "TEXCOORD_0": 46,
                        "_wind": 44
                    },
                    "indices": 47,
                    "material": 1
                }
            ]
        },
        {
            "name": "SM_vdknafgha_VarD",
            "primitives": [
                {
                    "attributes": {
                        "POSITION": 49,
                        "TEXCOORD_0": 50,
                        "_wind": 48
                    },
                    "indices": 51,
                    "material": 0
                }
            ]
        },
        {
            "name": "SM_vdknafgha_VarD_LOD1",
            "primitives": [
                {
                    "attributes": {
                        "POSITION": 53,
                        "TEXCOORD_0": 54,
                        "_wind": 52
                    },
                    "indices": 55,
                    "material": 0
                }
            ]
        },
        {
            "name": "SM_vdknafgha_VarD_LOD2",
            "primitives": [
                {
                    "attributes": {
                        "POSITION": 57,
                        "TEXCOORD_0": 58,
                        "_wind": 56
                    },
                    "indices": 59,
                    "material": 0
                }
            ]
        },
        {
            "name": "SM_vdknafgha_VarD_LOD3",
            "primitives": [
                {
                    "attributes": {
                        "POSITION": 61,
                        "TEXCOORD_0": 62,
                        "_wind": 60
                    },
                    "indices": 63,
                    "material": 1
                }
            ]
        },
        {
            "name": "SM_vdknafgha_VarE",
            "primitives": [
                {
                    "attributes": {
                        "POSITION": 65,
                        "TEXCOORD_0": 66,
                        "_wind": 64
                    },
                    "indices": 67,
                    "material": 0
                }
            ]
        },
        {
            "name": "SM_vdknafgha_VarE_LOD1",
            "primitives": [
                {
                    "attributes": {
                        "POSITION": 69,
                        "TEXCOORD_0": 70,
                        "_wind": 68
                    },
                    "indices": 71,
                    "material": 0
                }
            ]
        },
        {
            "name": "SM_vdknafgha_VarE_LOD2",
            "primitives": [
                {
                    "attributes": {
                        "POSITION": 73,
                        "TEXCOORD_0": 74,
                        "_wind": 72
                    },
                    "indices": 75,
                    "material": 0
                }
            ]
        },
        {
            "name": "SM_vdknafgha_VarE_LOD3",
            "primitives": [
                {
                    "attributes": {
                        "POSITION": 77,
                        "TEXCOORD_0": 78,
                        "_wind": 76
                    },
                    "indices": 79,
                    "material": 1
                }
            ]
        },
        {
            "name": "SM_vdknafgha_VarF",
            "primitives": [
                {
                    "attributes": {
                        "POSITION": 81,
                        "TEXCOORD_0": 82,
                        "_wind": 80
                    },
                    "indices": 83,
                    "material": 0
                }
            ]
        },
        {
            "name": "SM_vdknafgha_VarF_LOD1",
            "primitives": [
                {
                    "attributes": {
                        "POSITION": 85,
                        "TEXCOORD_0": 86,
                        "_wind": 84
                    },
                    "indices": 87,
                    "material": 0
                }
            ]
        },
        {
            "name": "SM_vdknafgha_VarF_LOD2",
            "primitives": [
                {
                    "attributes": {
                        "POSITION": 89,
                        "TEXCOORD_0": 90,
                        "_wind": 88
                    },
                    "indices": 91,
                    "material": 0
                }
            ]
        },
        {
            "name": "SM_vdknafgha_VarF_LOD3",
            "primitives": [
                {
                    "attributes": {
                        "POSITION": 93,
                        "TEXCOORD_0": 94,
                        "_wind": 92
                    },
                    "indices": 95,
                    "material": 1
                }
            ]
        },
        {
            "name": "SM_vdknafgha_VarG",
            "primitives": [
                {
                    "attributes": {
                        "POSITION": 97,
                        "TEXCOORD_0": 98,
                        "_wind": 96
                    },
                    "indices": 99,
                    "material": 0
                }
            ]
        },
        {
            "name": "SM_vdknafgha_VarG_LOD1",
            "primitives": [
                {
                    "attributes": {
                        "POSITION": 101,
                        "TEXCOORD_0": 102,
                        "_wind": 100
                    },
                    "indices": 103,
                    "material": 0
                }
            ]
        },
        {
            "name": "SM_vdknafgha_VarG_LOD2",
            "primitives": [
                {
                    "attributes": {
                        "POSITION": 105,
                        "TEXCOORD_0": 106,
                        "_wind": 104
                    },
                    "indices": 107,
                    "material": 0
                }
            ]
        },
        {
            "name": "SM_vdknafgha_VarG_LOD3",
            "primitives": [
                {
                    "attributes": {
                        "POSITION": 109,
                        "TEXCOORD_0": 110,
                        "_wind": 108
                    },
                    "indices": 111,
                    "material": 1
                }
            ]
        },
        {
            "name": "SM_vdknafgha_VarH",
            "primitives": [
                {
                    "attributes": {
                        "POSITION": 113,
                        "TEXCOORD_0": 114,
                        "_wind": 112
                    },
                    "indices": 115,
                    "material": 0
                }
            ]
        },
        {
            "name": "SM_vdknafgha_VarH_LOD1",
            "primitives": [
                {
                    "attributes": {
                        "POSITION": 117,
                        "TEXCOORD_0": 118,
                        "_wind": 116
                    },
                    "indices": 119,
                    "material": 0
                }
            ]
        },
        {
            "name": "SM_vdknafgha_VarH_LOD2",
            "primitives": [
                {
                    "attributes": {
                        "POSITION": 121,
                        "TEXCOORD_0": 122,
                        "_wind": 120
                    },
                    "indices": 123,
                    "material": 0
                }
            ]
        },
        {
            "name": "SM_vdknafgha_VarH_LOD3",
            "primitives": [
                {
                    "attributes": {
                        "POSITION": 125,
                        "TEXCOORD_0": 126,
                        "_wind": 124
                    },
                    "indices": 111,
                    "material": 1
                }
            ]
        }
    ],
    "textures": [
        {
            "sampler": 0,
            "source": 0
        },
        {
            "sampler": 0,
            "source": 1
        },
        {
            "sampler": 0,
            "source": 2
        },
        {
            "sampler": 0,
            "source": 3
        },
        {
            "sampler": 0,
            "source": 4
        }
    ],
    "images": [
        {
            "mimeType": "image/png",
            "name": "T_vdknafgha_2K_N",
            "uri": "../Textures/T_vdknafgha_2K_N.png",
            "extras": {
                "mipgen": "sharpen_4"
            }
        },
        {
            "mimeType": "image/png",
            "name": "T_vdknafgha_2K_ORT",
            "uri": "../Textures/T_vdknafgha_2K_ORT.png",
            "extras": {
                "compression": "mask",
                "textureSlot": "Mask",
                "materialIndex": 0,
                "mipgen": "sharpen_6",
                "alphaCoverage": [
                    0.333,
                    0,
                    0,
                    0
                ],
                "scaleMips": true
            }
        },
        {
            "mimeType": "image/png",
            "name": "T_vdknafgha_2K_B-O",
            "uri": "../Textures/T_vdknafgha_2K_B-O.png",
            "extras": {
                "mipgen": "sharpen_4"
            }
        },
        {
            "mimeType": "image/png",
            "name": "T_vdknafgha_2K_Billboard_N-T",
            "uri": "../Textures/T_vdknafgha_2K_Billboard_N-T.png",
            "extras": {
                "compression": "mask",
                "mipgen": "sharpen_4"
            }
        },
        {
            "mimeType": "image/png",
            "name": "T_vdknafgha_2K_Billboard_B-O",
            "uri": "../Textures/T_vdknafgha_2K_Billboard_B-O.png",
            "extras": {
                "mipgen": "sharpen_4",
                "alphaCoverage": [
                    0,
                    0,
                    0,
                    0.333
                ],
                "scaleMips": true
            }
        }
    ],
    "accessors": [
        {
            "bufferView": 0,
            "componentType": 5123,
            "count": 328,
            "normalized": true,
            "type": "VEC4"
        },
        {
            "bufferView": 1,
            "componentType": 5126,
            "count": 328,
            "max": [
                12.046172142028809,
                21.620412826538086,
                1.2422680854797363
            ],
            "min": [
                -17.405559539794922,
                -15.190532684326172,
                -28.813203811645508
            ],
            "type": "VEC3"
        },
        {
            "bufferView": 2,
            "componentType": 5126,
            "count": 328,
            "type": "VEC2"
        },
        {
            "bufferView": 3,
            "componentType": 5123,
            "count": 729,
            "type": "SCALAR"
        },
        {
            "bufferView": 4,
            "componentType": 5123,
            "count": 258,
            "normalized": true,
            "type": "VEC4"
        },
        {
            "bufferView": 5,
            "componentType": 5126,
            "count": 258,
            "max": [
                12.000252723693848,
                21.621782302856445,
                1.268142819404602
            ],
            "min": [
                -17.453128814697266,
                -15.191221237182617,
                -28.789012908935547
            ],
            "type": "VEC3"
        },
        {
            "bufferView": 6,
            "componentType": 5126,
            "count": 258,
            "type": "VEC2"
        },
        {
            "bufferView": 7,
            "componentType": 5123,
            "count": 519,
            "type": "SCALAR"
        },
        {
            "bufferView": 8,
            "componentType": 5123,
            "count": 188,
            "normalized": true,
            "type": "VEC4"
        },
        {
            "bufferView": 9,
            "componentType": 5126,
            "count": 188,
            "max": [
                12.00419807434082,
                21.62183380126953,
                1.5408681631088257
            ],
            "min": [
                -17.448863983154297,
                -15.249015808105469,
                -28.788497924804688
            ],
            "type": "VEC3"
        },
        {
            "bufferView": 10,
            "componentType": 5126,
            "count": 188,
            "type": "VEC2"
        },
        {
            "bufferView": 11,
            "componentType": 5123,
            "count": 339,
            "type": "SCALAR"
        },
        {
            "bufferView": 12,
            "componentType": 5123,
            "count": 6,
            "normalized": true,
            "type": "VEC4"
        },
        {
            "bufferView": 13,
            "componentType": 5126,
            "count": 6,
            "max": [
                12.117610931396484,
                0,
                1.2088927030563354
            ],
            "min": [
                -17.43756103515625,
                0,
                -28.867233276367188
            ],
            "type": "VEC3"
        },
        {
            "bufferView": 14,
            "componentType": 5126,
            "count": 6,
            "type": "VEC2"
        },
        {
            "bufferView": 15,
            "componentType": 5123,
            "count": 12,
            "type": "SCALAR"
        },
        {
            "bufferView": 16,
            "componentType": 5123,
            "count": 365,
            "normalized": true,
            "type": "VEC4"
        },
        {
            "bufferView": 17,
            "componentType": 5126,
            "count": 365,
            "max": [
                12.742513656616211,
                15.71621036529541,
                1.1318702697753906
            ],
            "min": [
                -13.79858112335205,
                -14.274813652038574,
                -24.98027229309082
            ],
            "type": "VEC3"
        },
        {
            "bufferView": 18,
            "componentType": 5126,
            "count": 365,
            "type": "VEC2"
        },
        {
            "bufferView": 19,
            "componentType": 5123,
            "count": 822,
            "type": "SCALAR"
        },
        {
            "bufferView": 20,
            "componentType": 5123,
            "count": 277,
            "normalized": true,
            "type": "VEC4"
        },
        {
            "bufferView": 21,
            "componentType": 5126,
            "count": 277,
            "max": [
                12.782510757446289,
                15.71621036529541,
                1.131786823272705
            ],
            "min": [
                -13.758580207824707,
                -14.274813652038574,
                -24.9803466796875
            ],
            "type": "VEC3"
        },
        {
            "bufferView": 22,
            "componentType": 5126,
            "count": 277,
            "type": "VEC2"
        },
        {
            "bufferView": 23,
            "componentType": 5123,
            "count": 564,
            "type": "SCALAR"
        },
        {
            "bufferView": 24,
            "componentType": 5123,
            "count": 214,
            "normalized": true,
            "type": "VEC4"
        },
        {
            "bufferView": 25,
            "componentType": 5126,
            "count": 214,
            "max": [
                12.733501434326172,
                15.716552734375,
                1.1319539546966553
            ],
            "min": [
                -13.807588577270508,
                -14.493483543395996,
                -24.980302810668945
            ],
            "type": "VEC3"
        },
        {
            "bufferView": 26,
            "componentType": 5126,
            "count": 214,
            "type": "VEC2"
        },
        {
            "bufferView": 27,
            "componentType": 5123,
            "count": 393,
            "type": "SCALAR"
        },
        {
            "bufferView": 28,
            "componentType": 5123,
            "count": 5,
            "normalized": true,
            "type": "VEC4"
        },
        {
            "bufferView": 29,
            "componentType": 5126,
            "count": 5,
            "max": [
                12.84191608428955,
                0,
                0.12958571314811707
            ],
            "min": [
                -13.686910629272461,
                0,
                -24.980297088623047
            ],
            "type": "VEC3"
        },
        {
            "bufferView": 30,
            "componentType": 5126,
            "count": 5,
            "type": "VEC2"
        },
        {
            "bufferView": 31,
            "componentType": 5123,
            "count": 9,
            "type": "SCALAR"
        },
        {
            "bufferView": 32,
            "componentType": 5123,
            "count": 1323,
            "normalized": true,
            "type": "VEC4"
        },
        {
            "bufferView": 33,
            "componentType": 5126,
            "count": 1323,
            "max": [
                43.874759674072266,
                35.94444274902344,
                1.3372385501861572
            ],
            "min": [
                -39.24082946777344,
                -38.74436950683594,
                -43.979827880859375
            ],
            "type": "VEC3"
        },
        {
            "bufferView": 34,
            "componentType": 5126,
            "count": 1323,
            "type": "VEC2"
        },
        {
            "bufferView": 35,
            "componentType": 5123,
            "count": 3600,
            "type": "SCALAR"
        },
        {
            "bufferView": 36,
            "componentType": 5123,
            "count": 995,
            "normalized": true,
            "type": "VEC4"
        },
        {
            "bufferView": 37,
            "componentType": 5126,
            "count": 995,
            "max": [
                43.879337310791016,
                35.94444274902344,
                1.533559799194336
            ],
            "min": [
                -39.23631286621094,
                -38.74436950683594,
                -45.003448486328125
            ],
            "type": "VEC3"
        },
        {
            "bufferView": 38,
            "componentType": 5126,
            "count": 995,
            "type": "VEC2"
        },
        {
            "bufferView": 39,
            "componentType": 5123,
            "count": 2328,
            "type": "SCALAR"
        },
        {
            "bufferView": 40,
            "componentType": 5123,
            "count": 698,
            "normalized": true,
            "type": "VEC4"
        },
        {
            "bufferView": 41,
            "componentType": 5126,
            "count": 698,
            "max": [
                44.34998321533203,
                36.57384490966797,
                1.533559799194336
            ],
            "min": [
                -39.31736755371094,
                -38.74436950683594,
                -45.003448486328125
            ],
            "type": "VEC3"
        },
        {
            "bufferView": 42,
            "componentType": 5126,
            "count": 698,
            "type": "VEC2"
        },
        {
            "bufferView": 43,
            "componentType": 5123,
            "count": 1437,
            "type": "SCALAR"
        },
        {
            "bufferView": 44,
            "componentType": 5123,
            "count": 8,
            "normalized": true,
            "type": "VEC4"
        },
        {
            "bufferView": 45,
            "componentType": 5126,
            "count": 8,
            "max": [
                43.369773864746094,
                0,
                1.3099204301834106
            ],
            "min": [
                -39.095298767089844,
                0,
                -43.77458190917969
            ],
            "type": "VEC3"
        },
        {
            "bufferView": 46,
            "componentType": 5126,
            "count": 8,
            "type": "VEC2"
        },
        {
            "bufferView": 47,
            "componentType": 5123,
            "count": 18,
            "type": "SCALAR"
        },
        {
            "bufferView": 48,
            "componentType": 5123,
            "count": 325,
            "normalized": true,
            "type": "VEC4"
        },
        {
            "bufferView": 49,
            "componentType": 5126,
            "count": 325,
            "max": [
                20.562406539916992,
                23.960853576660156,
                1.5323224067687988
            ],
            "min": [
                -21.97329330444336,
                -16.206178665161133,
                -33.012916564941406
            ],
            "type": "VEC3"
        },
        {
            "bufferView": 50,
            "componentType": 5126,
            "count": 325,
            "type": "VEC2"
        },
        {
            "bufferView": 51,
            "componentType": 5123,
            "count": 744,
            "type": "SCALAR"
        },
        {
            "bufferView": 52,
            "componentType": 5123,
            "count": 243,
            "normalized": true,
            "type": "VEC4"
        },
        {
            "bufferView": 53,
            "componentType": 5126,
            "count": 243,
            "max": [
                20.543987274169922,
                23.961166381835938,
                1.5323456525802612
            ],
            "min": [
                -21.992277145385742,
                -16.206396102905273,
                -33.01335525512695
            ],
            "type": "VEC3"
        },
        {
            "bufferView": 54,
            "componentType": 5126,
            "count": 243,
            "type": "VEC2"
        },
        {
            "bufferView": 55,
            "componentType": 5123,
            "count": 498,
            "type": "SCALAR"
        },
        {
            "bufferView": 56,
            "componentType": 5123,
            "count": 172,
            "normalized": true,
            "type": "VEC4"
        },
        {
            "bufferView": 57,
            "componentType": 5126,
            "count": 172,
            "max": [
                20.55318832397461,
                23.961166381835938,
                1.877004623413086
            ],
            "min": [
                -21.983074188232422,
                -16.45327377319336,
                -31.750598907470703
            ],
            "type": "VEC3"
        },
        {
            "bufferView": 58,
            "componentType": 5126,
            "count": 172,
            "type": "VEC2"
        },
        {
            "bufferView": 59,
            "componentType": 5123,
            "count": 315,
            "type": "SCALAR"
        },
        {
            "bufferView": 60,
            "componentType": 5123,
            "count": 6,
            "normalized": true,
            "type": "VEC4"
        },
        {
            "bufferView": 61,
            "componentType": 5126,
            "count": 6,
            "max": [
                20.536191940307617,
                0,
                1.5309404134750366
            ],
            "min": [
                -21.961124420166016,
                0,
                -32.98312759399414
            ],
            "type": "VEC3"
        },
        {
            "bufferView": 62,
            "componentType": 5126,
            "count": 6,
            "type": "VEC2"
        },
        {
            "bufferView": 63,
            "componentType": 5123,
            "count": 12,
            "type": "SCALAR"
        },
        {
            "bufferView": 64,
            "componentType": 5123,
            "count": 569,
            "normalized": true,
            "type": "VEC4"
        },
        {
            "bufferView": 65,
            "componentType": 5126,
            "count": 569,
            "max": [
                32.810951232910156,
                30.451541900634766,
                3.7099432945251465
            ],
            "min": [
                -38.51314163208008,
                -29.045894622802734,
                -44.80002212524414
            ],
            "type": "VEC3"
        },
        {
            "bufferView": 66,
            "componentType": 5126,
            "count": 569,
            "type": "VEC2"
        },
        {
            "bufferView": 67,
            "componentType": 5123,
            "count": 1314,
            "type": "SCALAR"
        },
        {
            "bufferView": 68,
            "componentType": 5123,
            "count": 431,
            "normalized": true,
            "type": "VEC4"
        },
        {
            "bufferView": 69,
            "componentType": 5126,
            "count": 431,
            "max": [
                32.684200286865234,
                30.45177459716797,
                3.709937334060669
            ],
            "min": [
                -38.639808654785156,
                -29.045879364013672,
                -44.79990768432617
            ],
            "type": "VEC3"
        },
        {
            "bufferView": 70,
            "componentType": 5126,
            "count": 431,
            "type": "VEC2"
        },
        {
            "bufferView": 71,
            "componentType": 5123,
            "count": 918,
            "type": "SCALAR"
        },
        {
            "bufferView": 72,
            "componentType": 5123,
            "count": 305,
            "normalized": true,
            "type": "VEC4"
        },
        {
            "bufferView": 73,
            "componentType": 5126,
            "count": 305,
            "max": [
                32.846927642822266,
                30.451786041259766,
                3.6832306385040283
            ],
            "min": [
                -39.159019470214844,
                -29.045894622802734,
                -46.08308410644531
            ],
            "type": "VEC3"
        },
        {
            "bufferView": 74,
            "componentType": 5126,
            "count": 305,
            "type": "VEC2"
        },
        {
            "bufferView": 75,
            "componentType": 5123,
            "count": 585,
            "type": "SCALAR"
        },
        {
            "bufferView": 76,
            "componentType": 5123,
            "count": 8,
            "normalized": true,
            "type": "VEC4"
        },
        {
            "bufferView": 77,
            "componentType": 5126,
            "count": 8,
            "max": [
                32.62565231323242,
                0,
                3.6998889446258545
            ],
            "min": [
                -41.70085144042969,
                0,
                -44.6786003112793
            ],
            "type": "VEC3"
        },
        {
            "bufferView": 78,
            "componentType": 5126,
            "count": 8,
            "type": "VEC2"
        },
        {
            "bufferView": 79,
            "componentType": 5123,
            "count": 18,
            "type": "SCALAR"
        },
        {
            "bufferView": 80,
            "componentType": 5123,
            "count": 703,
            "normalized": true,
            "type": "VEC4"
        },
        {
            "bufferView": 81,
            "componentType": 5126,
            "count": 703,
            "max": [
                41.372169494628906,
                29.385059356689453,
                2.744936466217041
            ],
            "min": [
                -31.206735610961914,
                -30.278724670410156,
                -49.8283576965332
            ],
            "type": "VEC3"
        },
        {
            "bufferView": 82,
            "componentType": 5126,
            "count": 703,
            "type": "VEC2"
        },
        {
            "bufferView": 83,
            "componentType": 5123,
            "count": 1689,
            "type": "SCALAR"
        },
        {
            "bufferView": 84,
            "componentType": 5123,
            "count": 536,
            "normalized": true,
            "type": "VEC4"
        },
        {
            "bufferView": 85,
            "componentType": 5126,
            "count": 536,
            "max": [
                41.199188232421875,
                29.38484001159668,
                2.7449753284454346
            ],
            "min": [
                -31.31292724609375,
                -30.278867721557617,
                -49.828495025634766
            ],
            "type": "VEC3"
        },
        {
            "bufferView": 86,
            "componentType": 5126,
            "count": 536,
            "type": "VEC2"
        },
        {
            "bufferView": 87,
            "componentType": 5123,
            "count": 1224,
            "type": "SCALAR"
        },
        {
            "bufferView": 88,
            "componentType": 5123,
            "count": 448,
            "normalized": true,
            "type": "VEC4"
        },
        {
            "bufferView": 89,
            "componentType": 5126,
            "count": 448,
            "max": [
                41.616878509521484,
                29.946590423583984,
                2.7449262142181396
            ],
            "min": [
                -31.964200973510742,
                -30.71129035949707,
                -49.82851791381836
            ],
            "type": "VEC3"
        },
        {
            "bufferView": 90,
            "componentType": 5126,
            "count": 448,
            "type": "VEC2"
        },
        {
            "bufferView": 91,
            "componentType": 5123,
            "count": 906,
            "type": "SCALAR"
        },
        {
            "bufferView": 92,
            "componentType": 5123,
            "count": 8,
            "normalized": true,
            "type": "VEC4"
        },
        {
            "bufferView": 93,
            "componentType": 5126,
            "count": 8,
            "max": [
                40.925697326660156,
                0,
                2.754850149154663
            ],
            "min": [
                -31.225448608398438,
                0,
                -50.0081787109375
            ],
            "type": "VEC3"
        },
        {
            "bufferView": 94,
            "componentType": 5126,
            "count": 8,
            "type": "VEC2"
        },
        {
            "bufferView": 95,
            "componentType": 5123,
            "count": 18,
            "type": "SCALAR"
        },
        {
            "bufferView": 96,
            "componentType": 5123,
            "count": 2477,
            "normalized": true,
            "type": "VEC4"
        },
        {
            "bufferView": 97,
            "componentType": 5126,
            "count": 2477,
            "max": [
                59.0446891784668,
                49.80002212524414,
                6.064790725708008
            ],
            "min": [
                -64.16388702392578,
                -56.51425552368164,
                -60.228973388671875
            ],
            "type": "VEC3"
        },
        {
            "bufferView": 98,
            "componentType": 5126,
            "count": 2477,
            "type": "VEC2"
        },
        {
            "bufferView": 99,
            "componentType": 5123,
            "count": 6372,
            "type": "SCALAR"
        },
        {
            "bufferView": 100,
            "componentType": 5123,
            "count": 1833,
            "normalized": true,
            "type": "VEC4"
        },
        {
            "bufferView": 101,
            "componentType": 5126,
            "count": 1833,
            "max": [
                58.957374572753906,
                50.695716857910156,
                5.966104030609131
            ],
            "min": [
                -63.647544860839844,
                -58.650482177734375,
                -60.32823944091797
            ],
            "type": "VEC3"
        },
        {
            "bufferView": 102,
            "componentType": 5126,
            "count": 1833,
            "type": "VEC2"
        },
        {
            "bufferView": 103,
            "componentType": 5123,
            "count": 4464,
            "type": "SCALAR"
        },
        {
            "bufferView": 104,
            "componentType": 5123,
            "count": 1429,
            "normalized": true,
            "type": "VEC4"
        },
        {
            "bufferView": 105,
            "componentType": 5126,
            "count": 1429,
            "max": [
                61.360347747802734,
                54.07301330566406,
                5.916670799255371
            ],
            "min": [
                -66.39655303955078,
                -57.13063049316406,
                -60.377662658691406
            ],
            "type": "VEC3"
        },
        {
            "bufferView": 106,
            "componentType": 5126,
            "count": 1429,
            "type": "VEC2"
        },
        {
            "bufferView": 107,
            "componentType": 5123,
            "count": 3231,
            "type": "SCALAR"
        },
        {
            "bufferView": 108,
            "componentType": 5123,
            "count": 9,
            "normalized": true,
            "type": "VEC4"
        },
        {
            "bufferView": 109,
            "componentType": 5126,
            "count": 9,
            "max": [
                59.15419387817383,
                0,
                5.686242580413818
            ],
            "min": [
                -59.154212951660156,
                0,
                -60.166908264160156
            ],
            "type": "VEC3"
        },
        {
            "bufferView": 110,
            "componentType": 5126,
            "count": 9,
            "type": "VEC2"
        },
        {
            "bufferView": 111,
            "componentType": 5123,
            "count": 21,
            "type": "SCALAR"
        },
        {
            "bufferView": 112,
            "componentType": 5123,
            "count": 775,
            "normalized": true,
            "type": "VEC4"
        },
        {
            "bufferView": 113,
            "componentType": 5126,
            "count": 775,
            "max": [
                60.33738708496094,
                31.941530227661133,
                1.6995046138763428
            ],
            "min": [
                -31.69442367553711,
                -32.85722732543945,
                -52.40919494628906
            ],
            "type": "VEC3"
        },
        {
            "bufferView": 114,
            "componentType": 5126,
            "count": 775,
            "type": "VEC2"
        },
        {
            "bufferView": 115,
            "componentType": 5123,
            "count": 1815,
            "type": "SCALAR"
        },
        {
            "bufferView": 116,
            "componentType": 5123,
            "count": 641,
            "normalized": true,
            "type": "VEC4"
        },
        {
            "bufferView": 117,
            "componentType": 5126,
            "count": 641,
            "max": [
                60.33737564086914,
                31.941497802734375,
                1.7611944675445557
            ],
            "min": [
                -32.1226692199707,
                -33.81441879272461,
                -54.81094741821289
            ],
            "type": "VEC3"
        },
        {
            "bufferView": 118,
            "componentType": 5126,
            "count": 641,
            "type": "VEC2"
        },
        {
            "bufferView": 119,
            "componentType": 5123,
            "count": 1425,
            "type": "SCALAR"
        },
        {
            "bufferView": 120,
            "componentType": 5123,
            "count": 502,
            "normalized": true,
            "type": "VEC4"
        },
        {
            "bufferView": 121,
            "componentType": 5126,
            "count": 502,
            "max": [
                60.33738708496094,
                31.940818786621094,
                1.7251642942428589
            ],
            "min": [
                -32.78386688232422,
                -32.98210906982422,
                -53.68940734863281
            ],
            "type": "VEC3"
        },
        {
            "bufferView": 122,
            "componentType": 5126,
            "count": 502,
            "type": "VEC2"
        },
        {
            "bufferView": 123,
            "componentType": 5123,
            "count": 1044,
            "type": "SCALAR"
        },
        {
            "bufferView": 124,
            "componentType": 5123,
            "count": 9,
            "normalized": true,
            "type": "VEC4"
        },
        {
            "bufferView": 125,
            "componentType": 5126,
            "count": 9,
            "max": [
                61.94562911987305,
                0,
                1.6888409852981567
            ],
            "min": [
                -34.512779235839844,
                0,
                -52.082515716552734
            ],
            "type": "VEC3"
        },
        {
            "bufferView": 126,
            "componentType": 5126,
            "count": 9,
            "type": "VEC2"
        }
    ],
    "bufferViews": [
        {
            "buffer": 0,
            "byteLength": 2624,
            "byteOffset": 0,
            "target": 34962
        },
        {
            "buffer": 0,
            "byteLength": 3936,
            "byteOffset": 2624,
            "target": 34962
        },
        {
            "buffer": 0,
            "byteLength": 2624,
            "byteOffset": 6560,
            "target": 34962
        },
        {
            "buffer": 0,
            "byteLength": 1458,
            "byteOffset": 9184,
            "target": 34963
        },
        {
            "buffer": 0,
            "byteLength": 2064,
            "byteOffset": 10644,
            "target": 34962
        },
        {
            "buffer": 0,
            "byteLength": 3096,
            "byteOffset": 12708,
            "target": 34962
        },
        {
            "buffer": 0,
            "byteLength": 2064,
            "byteOffset": 15804,
            "target": 34962
        },
        {
            "buffer": 0,
            "byteLength": 1038,
            "byteOffset": 17868,
            "target": 34963
        },
        {
            "buffer": 0,
            "byteLength": 1504,
            "byteOffset": 18908,
            "target": 34962
        },
        {
            "buffer": 0,
            "byteLength": 2256,
            "byteOffset": 20412,
            "target": 34962
        },
        {
            "buffer": 0,
            "byteLength": 1504,
            "byteOffset": 22668,
            "target": 34962
        },
        {
            "buffer": 0,
            "byteLength": 678,
            "byteOffset": 24172,
            "target": 34963
        },
        {
            "buffer": 0,
            "byteLength": 48,
            "byteOffset": 24852,
            "target": 34962
        },
        {
            "buffer": 0,
            "byteLength": 72,
            "byteOffset": 24900,
            "target": 34962
        },
        {
            "buffer": 0,
            "byteLength": 48,
            "byteOffset": 24972,
            "target": 34962
        },
        {
            "buffer": 0,
            "byteLength": 24,
            "byteOffset": 25020,
            "target": 34963
        },
        {
            "buffer": 0,
            "byteLength": 2920,
            "byteOffset": 25044,
            "target": 34962
        },
        {
            "buffer": 0,
            "byteLength": 4380,
            "byteOffset": 27964,
            "target": 34962
        },
        {
            "buffer": 0,
            "byteLength": 2920,
            "byteOffset": 32344,
            "target": 34962
        },
        {
            "buffer": 0,
            "byteLength": 1644,
            "byteOffset": 35264,
            "target": 34963
        },
        {
            "buffer": 0,
            "byteLength": 2216,
            "byteOffset": 36908,
            "target": 34962
        },
        {
            "buffer": 0,
            "byteLength": 3324,
            "byteOffset": 39124,
            "target": 34962
        },
        {
            "buffer": 0,
            "byteLength": 2216,
            "byteOffset": 42448,
            "target": 34962
        },
        {
            "buffer": 0,
            "byteLength": 1128,
            "byteOffset": 44664,
            "target": 34963
        },
        {
            "buffer": 0,
            "byteLength": 1712,
            "byteOffset": 45792,
            "target": 34962
        },
        {
            "buffer": 0,
            "byteLength": 2568,
            "byteOffset": 47504,
            "target": 34962
        },
        {
            "buffer": 0,
            "byteLength": 1712,
            "byteOffset": 50072,
            "target": 34962
        },
        {
            "buffer": 0,
            "byteLength": 786,
            "byteOffset": 51784,
            "target": 34963
        },
        {
            "buffer": 0,
            "byteLength": 40,
            "byteOffset": 52572,
            "target": 34962
        },
        {
            "buffer": 0,
            "byteLength": 60,
            "byteOffset": 52612,
            "target": 34962
        },
        {
            "buffer": 0,
            "byteLength": 40,
            "byteOffset": 52672,
            "target": 34962
        },
        {
            "buffer": 0,
            "byteLength": 18,
            "byteOffset": 52712,
            "target": 34963
        },
        {
            "buffer": 0,
            "byteLength": 10584,
            "byteOffset": 52732,
            "target": 34962
        },
        {
            "buffer": 0,
            "byteLength": 15876,
            "byteOffset": 63316,
            "target": 34962
        },
        {
            "buffer": 0,
            "byteLength": 10584,
            "byteOffset": 79192,
            "target": 34962
        },
        {
            "buffer": 0,
            "byteLength": 7200,
            "byteOffset": 89776,
            "target": 34963
        },
        {
            "buffer": 0,
            "byteLength": 7960,
            "byteOffset": 96976,
            "target": 34962
        },
        {
            "buffer": 0,
            "byteLength": 11940,
            "byteOffset": 104936,
            "target": 34962
        },
        {
            "buffer": 0,
            "byteLength": 7960,
            "byteOffset": 116876,
            "target": 34962
        },
        {
            "buffer": 0,
            "byteLength": 4656,
            "byteOffset": 124836,
            "target": 34963
        },
        {
            "buffer": 0,
            "byteLength": 5584,
            "byteOffset": 129492,
            "target": 34962
        },
        {
            "buffer": 0,
            "byteLength": 8376,
            "byteOffset": 135076,
            "target": 34962
        },
        {
            "buffer": 0,
            "byteLength": 5584,
            "byteOffset": 143452,
            "target": 34962
        },
        {
            "buffer": 0,
            "byteLength": 2874,
            "byteOffset": 149036,
            "target": 34963
        },
        {
            "buffer": 0,
            "byteLength": 64,
            "byteOffset": 151912,
            "target": 34962
        },
        {
            "buffer": 0,
            "byteLength": 96,
            "byteOffset": 151976,
            "target": 34962
        },
        {
            "buffer": 0,
            "byteLength": 64,
            "byteOffset": 152072,
            "target": 34962
        },
        {
            "buffer": 0,
            "byteLength": 36,
            "byteOffset": 152136,
            "target": 34963
        },
        {
            "buffer": 0,
            "byteLength": 2600,
            "byteOffset": 152172,
            "target": 34962
        },
        {
            "buffer": 0,
            "byteLength": 3900,
            "byteOffset": 154772,
            "target": 34962
        },
        {
            "buffer": 0,
            "byteLength": 2600,
            "byteOffset": 158672,
            "target": 34962
        },
        {
            "buffer": 0,
            "byteLength": 1488,
            "byteOffset": 161272,
            "target": 34963
        },
        {
            "buffer": 0,
            "byteLength": 1944,
            "byteOffset": 162760,
            "target": 34962
        },
        {
            "buffer": 0,
            "byteLength": 2916,
            "byteOffset": 164704,
            "target": 34962
        },
        {
            "buffer": 0,
            "byteLength": 1944,
            "byteOffset": 167620,
            "target": 34962
        },
        {
            "buffer": 0,
            "byteLength": 996,
            "byteOffset": 169564,
            "target": 34963
        },
        {
            "buffer": 0,
            "byteLength": 1376,
            "byteOffset": 170560,
            "target": 34962
        },
        {
            "buffer": 0,
            "byteLength": 2064,
            "byteOffset": 171936,
            "target": 34962
        },
        {
            "buffer": 0,
            "byteLength": 1376,
            "byteOffset": 174000,
            "target": 34962
        },
        {
            "buffer": 0,
            "byteLength": 630,
            "byteOffset": 175376,
            "target": 34963
        },
        {
            "buffer": 0,
            "byteLength": 48,
            "byteOffset": 176008,
            "target": 34962
        },
        {
            "buffer": 0,
            "byteLength": 72,
            "byteOffset": 176056,
            "target": 34962
        },
        {
            "buffer": 0,
            "byteLength": 48,
            "byteOffset": 176128,
            "target": 34962
        },
        {
            "buffer": 0,
            "byteLength": 24,
            "byteOffset": 176176,
            "target": 34963
        },
        {
            "buffer": 0,
            "byteLength": 4552,
            "byteOffset": 176200,
            "target": 34962
        },
        {
            "buffer": 0,
            "byteLength": 6828,
            "byteOffset": 180752,
            "target": 34962
        },
        {
            "buffer": 0,
            "byteLength": 4552,
            "byteOffset": 187580,
            "target": 34962
        },
        {
            "buffer": 0,
            "byteLength": 2628,
            "byteOffset": 192132,
            "target": 34963
        },
        {
            "buffer": 0,
            "byteLength": 3448,
            "byteOffset": 194760,
            "target": 34962
        },
        {
            "buffer": 0,
            "byteLength": 5172,
            "byteOffset": 198208,
            "target": 34962
        },
        {
            "buffer": 0,
            "byteLength": 3448,
            "byteOffset": 203380,
            "target": 34962
        },
        {
            "buffer": 0,
            "byteLength": 1836,
            "byteOffset": 206828,
            "target": 34963
        },
        {
            "buffer": 0,
            "byteLength": 2440,
            "byteOffset": 208664,
            "target": 34962
        },
        {
            "buffer": 0,
            "byteLength": 3660,
            "byteOffset": 211104,
            "target": 34962
        },
        {
            "buffer": 0,
            "byteLength": 2440,
            "byteOffset": 214764,
            "target": 34962
        },
        {
            "buffer": 0,
            "byteLength": 1170,
            "byteOffset": 217204,
            "target": 34963
        },
        {
            "buffer": 0,
            "byteLength": 64,
            "byteOffset": 218376,
            "target": 34962
        },
        {
            "buffer": 0,
            "byteLength": 96,
            "byteOffset": 218440,
            "target": 34962
        },
        {
            "buffer": 0,
            "byteLength": 64,
            "byteOffset": 218536,
            "target": 34962
        },
        {
            "buffer": 0,
            "byteLength": 36,
            "byteOffset": 218600,
            "target": 34963
        },
        {
            "buffer": 0,
            "byteLength": 5624,
            "byteOffset": 218636,
            "target": 34962
        },
        {
            "buffer": 0,
            "byteLength": 8436,
            "byteOffset": 224260,
            "target": 34962
        },
        {
            "buffer": 0,
            "byteLength": 5624,
            "byteOffset": 232696,
            "target": 34962
        },
        {
            "buffer": 0,
            "byteLength": 3378,
            "byteOffset": 238320,
            "target": 34963
        },
        {
            "buffer": 0,
            "byteLength": 4288,
            "byteOffset": 241700,
            "target": 34962
        },
        {
            "buffer": 0,
            "byteLength": 6432,
            "byteOffset": 245988,
            "target": 34962
        },
        {
            "buffer": 0,
            "byteLength": 4288,
            "byteOffset": 252420,
            "target": 34962
        },
        {
            "buffer": 0,
            "byteLength": 2448,
            "byteOffset": 256708,
            "target": 34963
        },
        {
            "buffer": 0,
            "byteLength": 3584,
            "byteOffset": 259156,
            "target": 34962
        },
        {
            "buffer": 0,
            "byteLength": 5376,
            "byteOffset": 262740,
            "target": 34962
        },
        {
            "buffer": 0,
            "byteLength": 3584,
            "byteOffset": 268116,
            "target": 34962
        },
        {
            "buffer": 0,
            "byteLength": 1812,
            "byteOffset": 271700,
            "target": 34963
        },
        {
            "buffer": 0,
            "byteLength": 64,
            "byteOffset": 273512,
            "target": 34962
        },
        {
            "buffer": 0,
            "byteLength": 96,
            "byteOffset": 273576,
            "target": 34962
        },
        {
            "buffer": 0,
            "byteLength": 64,
            "byteOffset": 273672,
            "target": 34962
        },
        {
            "buffer": 0,
            "byteLength": 36,
            "byteOffset": 273736,
            "target": 34963
        },
        {
            "buffer": 0,
            "byteLength": 19816,
            "byteOffset": 273772,
            "target": 34962
        },
        {
            "buffer": 0,
            "byteLength": 29724,
            "byteOffset": 293588,
            "target": 34962
        },
        {
            "buffer": 0,
            "byteLength": 19816,
            "byteOffset": 323312,
            "target": 34962
        },
        {
            "buffer": 0,
            "byteLength": 12744,
            "byteOffset": 343128,
            "target": 34963
        },
        {
            "buffer": 0,
            "byteLength": 14664,
            "byteOffset": 355872,
            "target": 34962
        },
        {
            "buffer": 0,
            "byteLength": 21996,
            "byteOffset": 370536,
            "target": 34962
        },
        {
            "buffer": 0,
            "byteLength": 14664,
            "byteOffset": 392532,
            "target": 34962
        },
        {
            "buffer": 0,
            "byteLength": 8928,
            "byteOffset": 407196,
            "target": 34963
        },
        {
            "buffer": 0,
            "byteLength": 11432,
            "byteOffset": 416124,
            "target": 34962
        },
        {
            "buffer": 0,
            "byteLength": 17148,
            "byteOffset": 427556,
            "target": 34962
        },
        {
            "buffer": 0,
            "byteLength": 11432,
            "byteOffset": 444704,
            "target": 34962
        },
        {
            "buffer": 0,
            "byteLength": 6462,
            "byteOffset": 456136,
            "target": 34963
        },
        {
            "buffer": 0,
            "byteLength": 72,
            "byteOffset": 462600,
            "target": 34962
        },
        {
            "buffer": 0,
            "byteLength": 108,
            "byteOffset": 462672,
            "target": 34962
        },
        {
            "buffer": 0,
            "byteLength": 72,
            "byteOffset": 462780,
            "target": 34962
        },
        {
            "buffer": 0,
            "byteLength": 42,
            "byteOffset": 462852,
            "target": 34963
        },
        {
            "buffer": 0,
            "byteLength": 6200,
            "byteOffset": 462896,
            "target": 34962
        },
        {
            "buffer": 0,
            "byteLength": 9300,
            "byteOffset": 469096,
            "target": 34962
        },
        {
            "buffer": 0,
            "byteLength": 6200,
            "byteOffset": 478396,
            "target": 34962
        },
        {
            "buffer": 0,
            "byteLength": 3630,
            "byteOffset": 484596,
            "target": 34963
        },
        {
            "buffer": 0,
            "byteLength": 5128,
            "byteOffset": 488228,
            "target": 34962
        },
        {
            "buffer": 0,
            "byteLength": 7692,
            "byteOffset": 493356,
            "target": 34962
        },
        {
            "buffer": 0,
            "byteLength": 5128,
            "byteOffset": 501048,
            "target": 34962
        },
        {
            "buffer": 0,
            "byteLength": 2850,
            "byteOffset": 506176,
            "target": 34963
        },
        {
            "buffer": 0,
            "byteLength": 4016,
            "byteOffset": 509028,
            "target": 34962
        },
        {
            "buffer": 0,
            "byteLength": 6024,
            "byteOffset": 513044,
            "target": 34962
        },
        {
            "buffer": 0,
            "byteLength": 4016,
            "byteOffset": 519068,
            "target": 34962
        },
        {
            "buffer": 0,
            "byteLength": 2088,
            "byteOffset": 523084,
            "target": 34963
        },
        {
            "buffer": 0,
            "byteLength": 72,
            "byteOffset": 525172,
            "target": 34962
        },
        {
            "buffer": 0,
            "byteLength": 108,
            "byteOffset": 525244,
            "target": 34962
        },
        {
            "buffer": 0,
            "byteLength": 72,
            "byteOffset": 525352,
            "target": 34962
        }
    ],
    "samplers": [
        {
            "magFilter": 9729,
            "minFilter": 9987
        }
    ],
    "buffers": [
        {
            "byteLength": 525424,
            "uri": "../vdknafgha_tier_2.bin"
        }
    ],
    "extras": {
        "tier": 2
    }
}