{
    "asset": {
        "generator": "Khronos glTF Blender I/O v3.6.27",
        "version": "2.0"
    },
    "scene": 0,
    "scenes": [
        {
            "name": "Scene",
            "nodes": [
                0,
                1,
                2,
                3,
                4,
                5,
                6,
                7,
                8,
                9,
                10,
                11,
                12,
                13,
                14,
                15,
                16,
                17,
                18,
                19,
                20,
                21,
                22,
                23,
                24,
                25,
                26,
                27,
                28,
                29,
                30,
                31
            ]
        }
    ],
    "nodes": [
        {
            "mesh": 0,
            "name": "SM_vczndjqja_VarA",
            "rotation": [
                0.7071068286895752,
                0,
                0,
                0.7071068286895752
            ],
            "scale": [
                0.009999999776482582,
                0.009999999776482582,
                0.009999999776482582
            ]
        },
        {
            "mesh": 1,
            "name": "SM_vczndjqja_VarA_LOD1",
            "rotation": [
                0.7071068286895752,
                0,
                0,
                0.7071068286895752
            ],
            "scale": [
                0.009999999776482582,
                0.009999999776482582,
                0.009999999776482582
            ],
            "extras": {
                "lod": {
                    "index": 1,
                    "mesh": "SM_vczndjqja_VarA"
                }
            }
        },
        {
            "mesh": 2,
            "name": "SM_vczndjqja_VarA_LOD2",
            "rotation": [
                0.7071068286895752,
                0,
                0,
                0.7071068286895752
            ],
            "scale": [
                0.009999999776482582,
                0.009999999776482582,
                0.009999999776482582
            ],
            "extras": {
                "lod": {
                    "index": 2,
                    "mesh": "SM_vczndjqja_VarA"
                }
            }
        },
        {
            "mesh": 3,
            "name": "SM_vczndjqja_VarA_LOD3",
            "rotation": [
                0.7071068286895752,
                0,
                0,
                0.7071068286895752
            ],
            "scale": [
                0.009999999776482582,
                0.009999999776482582,
                0.009999999776482582
            ],
            "extras": {
                "lod": {
                    "index": 3,
                    "mesh": "SM_vczndjqja_VarA"
                }
            }
        },
        {
            "mesh": 4,
            "name": "SM_vczndjqja_VarB",
            "rotation": [
                0.7071068286895752,
                0,
                0,
                0.7071068286895752
            ],
            "scale": [
                0.009999999776482582,
                0.009999999776482582,
                0.009999999776482582
            ]
        },
        {
            "mesh": 5,
            "name": "SM_vczndjqja_VarB_LOD1",
            "rotation": [
                0.7071068286895752,
                0,
                0,
                0.7071068286895752
            ],
            "scale": [
                0.009999999776482582,
                0.009999999776482582,
                0.009999999776482582
            ],
            "extras": {
                "lod": {
                    "index": 1,
                    "mesh": "SM_vczndjqja_VarB"
                }
            }
        },
        {
            "mesh": 6,
            "name": "SM_vczndjqja_VarB_LOD2",
            "rotation": [
                0.7071068286895752,
                0,
                0,
                0.7071068286895752
            ],
            "scale": [
                0.009999999776482582,
                0.009999999776482582,
                0.009999999776482582
            ],
            "extras": {
                "lod": {
                    "index": 2,
                    "mesh": "SM_vczndjqja_VarB"
                }
            }
        },
        {
            "mesh": 7,
            "name": "SM_vczndjqja_VarB_LOD3",
            "rotation": [
                0.7071068286895752,
                0,
                0,
                0.7071068286895752
            ],
            "scale": [
                0.009999999776482582,
                0.009999999776482582,
                0.009999999776482582
            ],
            "extras": {
                "lod": {
                    "index": 3,
                    "mesh": "SM_vczndjqja_VarB"
                }
            }
        },
        {
            "mesh": 8,
            "name": "SM_vczndjqja_VarC",
            "rotation": [
                0.7071068286895752,
                0,
                0,
                0.7071068286895752
            ],
            "scale": [
                0.009999999776482582,
                0.009999999776482582,
                0.009999999776482582
            ]
        },
        {
            "mesh": 9,
            "name": "SM_vczndjqja_VarC_LOD1",
            "rotation": [
                0.7071068286895752,
                0,
                0,
                0.7071068286895752
            ],
            "scale": [
                0.009999999776482582,
                0.009999999776482582,
                0.009999999776482582
            ],
            "extras": {
                "lod": {
                    "index": 1,
                    "mesh": "SM_vczndjqja_VarC"
                }
            }
        },
        {
            "mesh": 10,
            "name": "SM_vczndjqja_VarC_LOD2",
            "rotation": [
                0.7071068286895752,
                0,
                0,
                0.7071068286895752
            ],
            "scale": [
                0.009999999776482582,
                0.009999999776482582,
                0.009999999776482582
            ],
            "extras": {
                "lod": {
                    "index": 2,
                    "mesh": "SM_vczndjqja_VarC"
                }
            }
        },
        {
            "mesh": 11,
            "name": "SM_vczndjqja_VarC_LOD3",
            "rotation": [
                0.7071068286895752,
                0,
                0,
                0.7071068286895752
            ],
            "scale": [
                0.009999999776482582,
                0.009999999776482582,
                0.009999999776482582
            ],
            "extras": {
                "lod": {
                    "index": 3,
                    "mesh": "SM_vczndjqja_VarC"
                }
            }
        },
        {
            "mesh": 12,
            "name": "SM_vczndjqja_VarD",
            "rotation": [
                0.7071068286895752,
                0,
                0,
                0.7071068286895752
            ],
            "scale": [
                0.009999999776482582,
                0.009999999776482582,
                0.009999999776482582
            ]
        },
        {
            "mesh": 13,
            "name": "SM_vczndjqja_VarD_LOD1",
            "rotation": [
                0.7071068286895752,
                0,
                0,
                0.7071068286895752
            ],
            "scale": [
                0.009999999776482582,
                0.009999999776482582,
                0.009999999776482582
            ],
            "extras": {
                "lod": {
                    "index": 1,
                    "mesh": "SM_vczndjqja_VarD"
                }
            }
        },
        {
            "mesh": 14,
            "name": "SM_vczndjqja_VarD_LOD2",
            "rotation": [
                0.7071068286895752,
                0,
                0,
                0.7071068286895752
            ],
            "scale": [
                0.009999999776482582,
                0.009999999776482582,
                0.009999999776482582
            ],
            "extras": {
                "lod": {
                    "index": 2,
                    "mesh": "SM_vczndjqja_VarD"
                }
            }
        },
        {
            "mesh": 15,
            "name": "SM_vczndjqja_VarD_LOD3",
            "rotation": [
                0.7071068286895752,
                0,
                0,
                0.7071068286895752
            ],
            "scale": [
                0.009999999776482582,
                0.009999999776482582,
                0.009999999776482582
            ],
            "extras": {
                "lod": {
                    "index": 3,
                    "mesh": "SM_vczndjqja_VarD"
                }
            }
        },
        {
            "mesh": 16,
            "name": "SM_vczndjqja_VarE",
            "rotation": [
                0.7071068286895752,
                0,
                0,
                0.7071068286895752
            ],
            "scale": [
                0.009999999776482582,
                0.009999999776482582,
                0.009999999776482582
            ]
        },
        {
            "mesh": 17,
            "name": "SM_vczndjqja_VarE_LOD1",
            "rotation": [
                0.7071068286895752,
                0,
                0,
                0.7071068286895752
            ],
            "scale": [
                0.009999999776482582,
                0.009999999776482582,
                0.009999999776482582
            ],
            "extras": {
                "lod": {
                    "index": 1,
                    "mesh": "SM_vczndjqja_VarE"
                }
            }
        },
        {
            "mesh": 18,
            "name": "SM_vczndjqja_VarE_LOD2",
            "rotation": [
                0.7071068286895752,
                0,
                0,
                0.7071068286895752
            ],
            "scale": [
                0.009999999776482582,
                0.009999999776482582,
                0.009999999776482582
            ],
            "extras": {
                "lod": {
                    "index": 2,
                    "mesh": "SM_vczndjqja_VarE"
                }
            }
        },
        {
            "mesh": 19,
            "name": "SM_vczndjqja_VarE_LOD3",
            "rotation": [
                0.7071068286895752,
                0,
                0,
                0.7071068286895752
            ],
            "scale": [
                0.009999999776482582,
                0.009999999776482582,
                0.009999999776482582
            ],
            "extras": {
                "lod": {
                    "index": 3,
                    "mesh": "SM_vczndjqja_VarE"
                }
            }
        },
        {
            "mesh": 20,
            "name": "SM_vczndjqja_VarF",
            "rotation": [
                0.7071068286895752,
                0,
                0,
                0.7071068286895752
            ],
            "scale": [
                0.009999999776482582,
                0.009999999776482582,
                0.009999999776482582
            ]
        },
        {
            "mesh": 21,
            "name": "SM_vczndjqja_VarF_LOD1",
            "rotation": [
                0.7071068286895752,
                0,
                0,
                0.7071068286895752
            ],
            "scale": [
                0.009999999776482582,
                0.009999999776482582,
                0.009999999776482582
            ],
            "extras": {
                "lod": {
                    "index": 1,
                    "mesh": "SM_vczndjqja_VarF"
                }
            }
        },
        {
            "mesh": 22,
            "name": "SM_vczndjqja_VarF_LOD2",
            "rotation": [
                0.7071068286895752,
                0,
                0,
                0.7071068286895752
            ],
            "scale": [
                0.009999999776482582,
                0.009999999776482582,
                0.009999999776482582
            ],
            "extras": {
                "lod": {
                    "index": 2,
                    "mesh": "SM_vczndjqja_VarF"
                }
            }
        },
        {
            "mesh": 23,
            "name": "SM_vczndjqja_VarF_LOD3",
            "rotation": [
                0.7071068286895752,
                0,
                0,
                0.7071068286895752
            ],
            "scale": [
                0.009999999776482582,
                0.009999999776482582,
                0.009999999776482582
            ],
            "extras": {
                "lod": {
                    "index": 3,
                    "mesh": "SM_vczndjqja_VarF"
                }
            }
        },
        {
            "mesh": 24,
            "name": "SM_vczndjqja_VarG",
            "rotation": [
                0.7071068286895752,
                0,
                0,
                0.7071068286895752
            ],
            "scale": [
                0.009999999776482582,
                0.009999999776482582,
                0.009999999776482582
            ]
        },
        {
            "mesh": 25,
            "name": "SM_vczndjqja_VarG_LOD1",
            "rotation": [
                0.7071068286895752,
                0,
                0,
                0.7071068286895752
            ],
            "scale": [
                0.009999999776482582,
                0.009999999776482582,
                0.009999999776482582
            ],
            "extras": {
                "lod": {
                    "index": 1,
                    "mesh": "SM_vczndjqja_VarG"
                }
            }
        },
        {
            "mesh": 26,
            "name": "SM_vczndjqja_VarG_LOD2",
            "rotation": [
                0.7071068286895752,
                0,
                0,
                0.7071068286895752
            ],
            "scale": [
                0.009999999776482582,
                0.009999999776482582,
                0.009999999776482582
            ],
            "extras": {
                "lod": {
                    "index": 2,
                    "mesh": "SM_vczndjqja_VarG"
                }
            }
        },
        {
            "mesh": 27,
            "name": "SM_vczndjqja_VarG_LOD3",
            "rotation": [
                0.7071068286895752,
                0,
                0,
                0.7071068286895752
            ],
            "scale": [
                0.009999999776482582,
                0.009999999776482582,
                0.009999999776482582
            ],
            "extras": {
                "lod": {
                    "index": 3,
                    "mesh": "SM_vczndjqja_VarG"
                }
            }
        },
        {
            "mesh": 28,
            "name": "SM_vczndjqja_VarH",
            "rotation": [
                0.7071068286895752,
                0,
                0,
                0.7071068286895752
            ],
            "scale": [
                0.009999999776482582,
                0.009999999776482582,
                0.009999999776482582
            ]
        },
        {
            "mesh": 29,
            "name": "SM_vczndjqja_VarH_LOD1",
            "rotation": [
                0.7071068286895752,
                0,
                0,
                0.7071068286895752
            ],
            "scale": [
                0.009999999776482582,
                0.009999999776482582,
                0.009999999776482582
            ],
            "extras": {
                "lod": {
                    "index": 1,
                    "mesh": "SM_vczndjqja_VarH"
                }
            }
        },
        {
            "mesh": 30,
            "name": "SM_vczndjqja_VarH_LOD2",
            "rotation": [
                0.7071068286895752,
                0,
                0,
                0.7071068286895752
            ],
            "scale": [
                0.009999999776482582,
                0.009999999776482582,
                0.009999999776482582
            ],
            "extras": {
                "lod": {
                    "index": 2,
                    "mesh": "SM_vczndjqja_VarH"
                }
            }
        },
        {
            "mesh": 31,
            "name": "SM_vczndjqja_VarH_LOD3",
            "rotation": [
                0.7071068286895752,
                0,
                0,
                0.7071068286895752
            ],
            "scale": [
                0.009999999776482582,
                0.009999999776482582,
                0.009999999776482582
            ],
            "extras": {
                "lod": {
                    "index": 3,
                    "mesh": "SM_vczndjqja_VarH"
                }
            }
        }
    ],
    "materials": [
        {
            "alphaMode": "MASK",
            "doubleSided": true,
            "name": "MI_vczndjqja",
            "normalTexture": {
                "index": 0
            },
            "pbrMetallicRoughness": {
                "baseColorTexture": {
                    "index": 2
                },
                "metallicRoughnessTexture": {
                    "index": 1
                },
                "metallicFactor": 0
            },
            "extras": {
                "params": [
                    {
                        "Name": "Tint Leaf Backside",
                        "Value": true
                    },
                    {
                        "Name": "Tint Translucency",
                        "Value": true
                    },
                    {
                        "Name": "use Growth Effect",
                        "Value": false
                    },
                    {
                        "Name": "Base Color Controls",
                        "Value": [
                            0.8999999761581421,
                            1,
                            1.2000000476837158,
                            0
                        ]
                    },
                    {
                        "Name": "Base Color Tint Leaf Backside",
                        "Value": [
                            0.6038280129432678,
                            0.5583410263061523,
                            0.6239609718322754,
                            1
                        ]
                    },
                    {
                        "Name": "Translucency Tint",
                        "Value": [
                            0.3331269919872284,
                            0.5,
                            0.32063400745391846,
                            1
                        ]
                    },
                    {
                        "Name": "Translucency Controls",
                        "Value": [
                            1,
                            2,
                            0.800000011920929,
                            0
                        ]
                    }
                ]
            }
        },
        {
            "alphaMode": "MASK",
            "doubleSided": true,
            "name": "MI_vczndjqja_Billboard",
            "normalTexture": {
                "index": 3
            },
            "pbrMetallicRoughness": {
                "baseColorTexture": {
                    "index": 4
                },
                "metallicFactor": 0,
                "roughnessFactor": 0.8
            },
            "extras": {
                "billboardFacingCamera": true,
                "params": [
                    {
                        "Name": "is Camera Facing Billboard",
                        "Value": true
                    },
                    {
                        "Name": "is Billboard",
                        "Value": true
                    },
                    {
                        "Name": "Tint Translucency",
                        "Value": true
                    },
                    {
                        "Name": "Base Color Controls",
                        "Value": [
                            0.8999999761581421,
                            1,
                            1.2000000476837158,
                            0
                        ]
                    },
                    {
                        "Name": "Translucency Tint",
                        "Value": [
                            0.3331269919872284,
                            0.5,
                            0.32063400745391846,
                            1
                        ]
                    },
                    {
                        "Name": "Translucency Controls",
                        "Value": [
                            1,
                            3,
                            0.800000011920929,
                            0
                        ]
                    }
                ]
            }
        }
    ],
    "meshes": [
        {
            "name": "SM_vczndjqja_VarA",
            "primitives": [
                {
                    "attributes": {
                        "POSITION": 1,
                        "TEXCOORD_0": 2,
                        "_wind": 0
                    },
                    "indices": 3,
                    "material": 0
                }
            ]
        },
        {
            "name": "SM_vczndjqja_VarA_LOD1",
            "primitives": [
                {
                    "attributes": {
                        "POSITION": 5,
                        "TEXCOORD_0": 6,
                        "_wind": 4
                    },
                    "indices": 7,
                    "material": 0
                }
            ]
        },
        {
            "name": "SM_vczndjqja_VarA_LOD2",
            "primitives": [
                {
                    "attributes": {
                        "POSITION": 9,
                        "TEXCOORD_0": 10,
                        "_wind": 8
                    },
                    "indices": 11,
                    "material": 0
                }
            ]
        },
        {
            "name": "SM_vczndjqja_VarA_LOD3",
            "primitives": [
                {
                    "attributes": {
                        "POSITION": 13,
                        "TEXCOORD_0": 14,
                        "_wind": 12
                    },
                    "indices": 15,
                    "material": 1
                }
            ]
        },
        {
            "name": "SM_vczndjqja_VarB",
            "primitives": [
                {
                    "attributes": {
                        "POSITION": 17,
                        "TEXCOORD_0": 18,
                        "_wind": 16
                    },
                    "indices": 19,
                    "material": 0
                }
            ]
        },
        {
            "name": "SM_vczndjqja_VarB_LOD1",
            "primitives": [
                {
                    "attributes": {
                        "POSITION": 21,
                        "TEXCOORD_0": 22,
                        "_wind": 20
                    },
                    "indices": 23,
                    "material": 0
                }
            ]
        },
        {
            "name": "SM_vczndjqja_VarB_LOD2",
            "primitives": [
                {
                    "attributes": {
                        "POSITION": 25,
                        "TEXCOORD_0": 26,
                        "_wind": 24
                    },
                    "indices": 27,
                    "material": 0
                }
            ]
        },
        {
            "name": "SM_vczndjqja_VarB_LOD3",
            "primitives": [
                {
                    "attributes": {
                        "POSITION": 29,
                        "TEXCOORD_0": 30,
                        "_wind": 28
                    },
                    "indices": 31,
                    "material": 1
                }
            ]
        },
        {
            "name": "SM_vczndjqja_VarC",
            "primitives": [
                {
                    "attributes": {
                        "POSITION": 33,
                        "TEXCOORD_0": 34,
                        "_wind": 32
                    },
                    "indices": 35,
                    "material": 0
                }
            ]
        },
        {
            "name": "SM_vczndjqja_VarC_LOD1",
            "primitives": [
                {
                    "attributes": {
                        "POSITION": 37,
                        "TEXCOORD_0": 38,
                        "_wind": 36
                    },
                    "indices": 39,
                    "material": 0
                }
            ]
        },
        {
            "name": "SM_vczndjqja_VarC_LOD2",
            "primitives": [
                {
                    "attributes": {
                        "POSITION": 41,
                        "TEXCOORD_0": 42,
                        "_wind": 40
                    },
                    "indices": 43,
                    "material": 0
                }
            ]
        },
        {
            "name": "SM_vczndjqja_VarC_LOD3",
            "primitives": [
                {
                    "attributes": {
                        "POSITION": 45,
                        "TEXCOORD_0": 46,
                        "_wind": 44
                    },
                    "indices": 47,
                    "material": 1
                }
            ]
        },
        {
            "name": "SM_vczndjqja_VarD",
            "primitives": [
                {
                    "attributes": {
                        "POSITION": 49,
                        "TEXCOORD_0": 50,
                        "_wind": 48
                    },
                    "indices": 51,
                    "material": 0
                }
            ]
        },
        {
            "name": "SM_vczndjqja_VarD_LOD1",
            "primitives": [
                {
                    "attributes": {
                        "POSITION": 53,
                        "TEXCOORD_0": 54,
                        "_wind": 52
                    },
                    "indices": 55,
                    "material": 0
                }
            ]
        },
        {
            "name": "SM_vczndjqja_VarD_LOD2",
            "primitives": [
                {
                    "attributes": {
                        "POSITION": 57,
                        "TEXCOORD_0": 58,
                        "_wind": 56
                    },
                    "indices": 59,
                    "material": 0
                }
            ]
        },
        {
            "name": "SM_vczndjqja_VarD_LOD3",
            "primitives": [
                {
                    "attributes": {
                        "POSITION": 61,
                        "TEXCOORD_0": 62,
                        "_wind": 60
                    },
                    "indices": 63,
                    "material": 1
                }
            ]
        },
        {
            "name": "SM_vczndjqja_VarE",
            "primitives": [
                {
                    "attributes": {
                        "POSITION": 65,
                        "TEXCOORD_0": 66,
                        "_wind": 64
                    },
                    "indices": 67,
                    "material": 0
                }
            ]
        },
        {
            "name": "SM_vczndjqja_VarE_LOD1",
            "primitives": [
                {
                    "attributes": {
                        "POSITION": 69,
                        "TEXCOORD_0": 70,
                        "_wind": 68
                    },
                    "indices": 71,
                    "material": 0
                }
            ]
        },
        {
            "name": "SM_vczndjqja_VarE_LOD2",
            "primitives": [
                {
                    "attributes": {
                        "POSITION": 73,
                        "TEXCOORD_0": 74,
                        "_wind": 72
                    },
                    "indices": 75,
                    "material": 0
                }
            ]
        },
        {
            "name": "SM_vczndjqja_VarE_LOD3",
            "primitives": [
                {
                    "attributes": {
                        "POSITION": 77,
                        "TEXCOORD_0": 78,
                        "_wind": 76
                    },
                    "indices": 79,
                    "material": 1
                }
            ]
        },
        {
            "name": "SM_vczndjqja_VarF",
            "primitives": [
                {
                    "attributes": {
                        "POSITION": 81,
                        "TEXCOORD_0": 82,
                        "_wind": 80
                    },
                    "indices": 83,
                    "material": 0
                }
            ]
        },
        {
            "name": "SM_vczndjqja_VarF_LOD1",
            "primitives": [
                {
                    "attributes": {
                        "POSITION": 85,
                        "TEXCOORD_0": 86,
                        "_wind": 84
                    },
                    "indices": 87,
                    "material": 0
                }
            ]
        },
        {
            "name": "SM_vczndjqja_VarF_LOD2",
            "primitives": [
                {
                    "attributes": {
                        "POSITION": 89,
                        "TEXCOORD_0": 90,
                        "_wind": 88
                    },
                    "indices": 91,
                    "material": 0
                }
            ]
        },
        {
            "name": "SM_vczndjqja_VarF_LOD3",
            "primitives": [
                {
                    "attributes": {
                        "POSITION": 93,
                        "TEXCOORD_0": 94,
                        "_wind": 92
                    },
                    "indices": 95,
                    "material": 1
                }
            ]
        },
        {
            "name": "SM_vczndjqja_VarG",
            "primitives": [
                {
                    "attributes": {
                        "POSITION": 97,
                        "TEXCOORD_0": 98,
                        "_wind": 96
                    },
                    "indices": 99,
                    "material": 0
                }
            ]
        },
        {
            "name": "SM_vczndjqja_VarG_LOD1",
            "primitives": [
                {
                    "attributes": {
                        "POSITION": 101,
                        "TEXCOORD_0": 102,
                        "_wind": 100
                    },
                    "indices": 103,
                    "material": 0
                }
            ]
        },
        {
            "name": "SM_vczndjqja_VarG_LOD2",
            "primitives": [
                {
                    "attributes": {
                        "POSITION": 105,
                        "TEXCOORD_0": 106,
                        "_wind": 104
                    },
                    "indices": 107,
                    "material": 0
                }
            ]
        },
        {
            "name": "SM_vczndjqja_VarG_LOD3",
            "primitives": [
                {
                    "attributes": {
                        "POSITION": 109,
                        "TEXCOORD_0": 110,
                        "_wind": 108
                    },
                    "indices": 111,
                    "material": 1
                }
            ]
        },
        {
            "name": "SM_vczndjqja_VarH",
            "primitives": [
                {
                    "attributes": {
                        "POSITION": 113,
                        "TEXCOORD_0": 114,
                        "_wind": 112
                    },
                    "indices": 115,
                    "material": 0
                }
            ]
        },
        {
            "name": "SM_vczndjqja_VarH_LOD1",
            "primitives": [
                {
                    "attributes": {
                        "POSITION": 117,
                        "TEXCOORD_0": 118,
                        "_wind": 116
                    },
                    "indices": 119,
                    "material": 0
                }
            ]
        },
        {
            "name": "SM_vczndjqja_VarH_LOD2",
            "primitives": [
                {
                    "attributes": {
                        "POSITION": 121,
                        "TEXCOORD_0": 122,
                        "_wind": 120
                    },
                    "indices": 123,
                    "material": 0
                }
            ]
        },
        {
            "name": "SM_vczndjqja_VarH_LOD3",
            "primitives": [
                {
                    "attributes": {
                        "POSITION": 125,
                        "TEXCOORD_0": 126,
                        "_wind": 124
                    },
                    "indices": 127,
                    "material": 1
                }
            ]
        }
    ],
    "textures": [
        {
            "sampler": 0,
            "source": 0
        },
        {
            "sampler": 0,
            "source": 1
        },
        {
            "sampler": 0,
            "source": 2
        },
        {
            "sampler": 0,
            "source": 3
        },
        {
            "sampler": 0,
            "source": 4
        }
    ],
    "images": [
        {
            "mimeType": "image/png",
            "name": "T_vczndjqja_2K_N",
            "uri": "../Textures/T_vczndjqja_2K_N.png",
            "extras": {
                "mipgen": "sharpen_4"
            }
        },
        {
            "mimeType": "image/png",
            "name": "T_vczndjqja_2K_ORT",
            "uri": "../Textures/T_vczndjqja_2K_ORT.png",
            "extras": {
                "compression": "mask",
                "textureSlot": "Mask",
                "materialIndex": 0,
                "mipgen": "sharpen_6",
                "alphaCoverage": [
                    0.333,
                    0,
                    0,
                    0
                ],
                "scaleMips": true
            }
        },
        {
            "mimeType": "image/png",
            "name": "T_vczndjqja_2K_B-O",
            "uri": "../Textures/T_vczndjqja_2K_B-O.png",
            "extras": {
                "mipgen": "sharpen_4"
            }
        },
        {
            "mimeType": "image/png",
            "name": "T_vczndjqja_2K_Billboard_N-T",
            "uri": "../Textures/T_vczndjqja_2K_Billboard_N-T.png",
            "extras": {
                "compression": "mask",
                "mipgen": "sharpen_4"
            }
        },
        {
            "mimeType": "image/png",
            "name": "T_vczndjqja_2K_Billboard_B-O",
            "uri": "../Textures/T_vczndjqja_2K_Billboard_B-O.png",
            "extras": {
                "mipgen": "sharpen_4",
                "alphaCoverage": [
                    0,
                    0,
                    0,
                    0.333
                ],
                "scaleMips": true
            }
        }
    ],
    "accessors": [
        {
            "bufferView": 0,
            "componentType": 5123,
            "count": 8002,
            "normalized": true,
            "type": "VEC4"
        },
        {
            "bufferView": 1,
            "componentType": 5126,
            "count": 8002,
            "max": [
                73.43988037109375,
                80.00287628173828,
                3.3964052200317383
            ],
            "min": [
                -84.86470031738281,
                -68.84962463378906,
                -86.84758758544922
            ],
            "type": "VEC3"
        },
        {
            "bufferView": 2,
            "componentType": 5126,
            "count": 8002,
            "type": "VEC2"
        },
        {
            "bufferView": 3,
            "componentType": 5123,
            "count": 19467,
            "type": "SCALAR"
        },
        {
            "bufferView": 4,
            "componentType": 5123,
            "count": 6178,
            "normalized": true,
            "type": "VEC4"
        },
        {
            "bufferView": 5,
            "componentType": 5126,
            "count": 6178,
            "max": [
                73.41748809814453,
                79.85186004638672,
                3.4004125595092773
            ],
            "min": [
                -84.71528625488281,
                -68.93782806396484,
                -86.81063079833984
            ],
            "type": "VEC3"
        },
        {
            "bufferView": 6,
            "componentType": 5126,
            "count": 6178,
            "type": "VEC2"
        },
        {
            "bufferView": 7,
            "componentType": 5123,
            "count": 14646,
            "type": "SCALAR"
        },
        {
            "bufferView": 8,
            "componentType": 5123,
            "count": 4807,
            "normalized": true,
            "type": "VEC4"
        },
        {
            "bufferView": 9,
            "componentType": 5126,
            "count": 4807,
            "max": [
                73.45327758789062,
                80.02799987792969,
                3.3992483615875244
            ],
            "min": [
                -84.86676788330078,
                -69.05620574951172,
                -86.8799057006836
            ],
            "type": "VEC3"
        },
        {
            "bufferView": 10,
            "componentType": 5126,
            "count": 4807,
            "type": "VEC2"
        },
        {
            "bufferView": 11,
            "componentType": 5123,
            "count": 10764,
            "type": "SCALAR"
        },
        {
            "bufferView": 12,
            "componentType": 5123,
            "count": 10,
            "normalized": true,
            "type": "VEC4"
        },
        {
            "bufferView": 13,
            "componentType": 5126,
            "count": 10,
            "max": [
                73.4791488647461,
                0,
                3.274873971939087
            ],
            "min": [
                -84.79029846191406,
                0,
                -86.90709686279297
            ],
            "type": "VEC3"
        },
        {
            "bufferView": 14,
            "componentType": 5126,
            "count": 10,
            "type": "VEC2"
        },
        {
            "bufferView": 15,
            "componentType": 5123,
            "count": 24,
            "type": "SCALAR"
        },
        {
            "bufferView": 16,
            "componentType": 5123,
            "count": 1377,
            "normalized": true,
            "type": "VEC4"
        },
        {
            "bufferView": 17,
            "componentType": 5126,
            "count": 1377,
            "max": [
                20.259485244750977,
                31.671300888061523,
                1.4221665859222412
            ],
            "min": [
                -44.037879943847656,
                -28.06624984741211,
                -40.7928352355957
            ],
            "type": "VEC3"
        },
        {
            "bufferView": 18,
            "componentType": 5126,
            "count": 1377,
            "type": "VEC2"
        },
        {
            "bufferView": 19,
            "componentType": 5123,
            "count": 2676,
            "type": "SCALAR"
        },
        {
            "bufferView": 20,
            "componentType": 5123,
            "count": 1048,
            "normalized": true,
            "type": "VEC4"
        },
        {
            "bufferView": 21,
            "componentType": 5126,
            "count": 1048,
            "max": [
                20.13943099975586,
                31.92112159729004,
                1.4195235967636108
            ],
            "min": [
                -44.28769302368164,
                -27.946195602416992,
                -40.76718521118164
            ],
            "type": "VEC3"
        },
        {
            "bufferView": 22,
            "componentType": 5126,
            "count": 1048,
            "type": "VEC2"
        },
        {
            "bufferView": 23,
            "componentType": 5123,
            "count": 1962,
            "type": "SCALAR"
        },
        {
            "bufferView": 24,
            "componentType": 5123,
            "count": 787,
            "normalized": true,
            "type": "VEC4"
        },
        {
            "bufferView": 25,
            "componentType": 5126,
            "count": 787,
            "max": [
                20.511560440063477,
                32.31050491333008,
                2.01186466217041
            ],
            "min": [
                -44.677085876464844,
                -27.853435516357422,
                -41.84591293334961
            ],
            "type": "VEC3"
        },
        {
            "bufferView": 26,
            "componentType": 5126,
            "count": 787,
            "type": "VEC2"
        },
        {
            "bufferView": 27,
            "componentType": 5123,
            "count": 1272,
            "type": "SCALAR"
        },
        {
            "bufferView": 28,
            "componentType": 5123,
            "count": 5,
            "normalized": true,
            "type": "VEC4"
        },
        {
            "bufferView": 29,
            "componentType": 5126,
            "count": 5,
            "max": [
                20.131622314453125,
                0,
                0.7019333839416504
            ],
            "min": [
                -44.16094970703125,
                0,
                -40.77927017211914
            ],
            "type": "VEC3"
        },
        {
            "bufferView": 30,
            "componentType": 5126,
            "count": 5,
            "type": "VEC2"
        },
        {
            "bufferView": 31,
            "componentType": 5123,
            "count": 9,
            "type": "SCALAR"
        },
        {
            "bufferView": 32,
            "componentType": 5123,
            "count": 362,
            "normalized": true,
            "type": "VEC4"
        },
        {
            "bufferView": 33,
            "componentType": 5126,
            "count": 362,
            "max": [
                24.83144187927246,
                29.729372024536133,
                1.293943166732788
            ],
            "min": [
                -29.31496810913086,
                -18.06893539428711,
                -30.998029708862305
            ],
            "type": "VEC3"
        },
        {
            "bufferView": 34,
            "componentType": 5126,
            "count": 362,
            "type": "VEC2"
        },
        {
            "bufferView": 35,
            "componentType": 5123,
            "count": 636,
            "type": "SCALAR"
        },
        {
            "bufferView": 36,
            "componentType": 5123,
            "count": 276,
            "normalized": true,
            "type": "VEC4"
        },
        {
            "bufferView": 37,
            "componentType": 5126,
            "count": 276,
            "max": [
                24.483976364135742,
                29.385488510131836,
                1.3076895475387573
            ],
            "min": [
                -30.088397979736328,
                -17.887378692626953,
                -30.683889389038086
            ],
            "type": "VEC3"
        },
        {
            "bufferView": 38,
            "componentType": 5126,
            "count": 276,
            "type": "VEC2"
        },
        {
            "bufferView": 39,
            "componentType": 5123,
            "count": 468,
            "type": "SCALAR"
        },
        {
            "bufferView": 40,
            "componentType": 5123,
            "count": 207,
            "normalized": true,
            "type": "VEC4"
        },
        {
            "bufferView": 41,
            "componentType": 5126,
            "count": 207,
            "max": [
                24.939790725708008,
                30.600759506225586,
                1.2703418731689453
            ],
            "min": [
                -30.07121467590332,
                -17.8690185546875,
                -30.388498306274414
            ],
            "type": "VEC3"
        },
        {
            "bufferView": 42,
            "componentType": 5126,
            "count": 207,
            "type": "VEC2"
        },
        {
            "bufferView": 43,
            "componentType": 5123,
            "count": 300,
            "type": "SCALAR"
        },
        {
            "bufferView": 44,
            "componentType": 5123,
            "count": 6,
            "normalized": true,
            "type": "VEC4"
        },
        {
            "bufferView": 45,
            "componentType": 5126,
            "count": 6,
            "max": [
                24.80426025390625,
                0,
                1.3011342287063599
            ],
            "min": [
                -29.294448852539062,
                0,
                -30.220529556274414
            ],
            "type": "VEC3"
        },
        {
            "bufferView": 46,
            "componentType": 5126,
            "count": 6,
            "type": "VEC2"
        },
        {
            "bufferView": 47,
            "componentType": 5123,
            "count": 12,
            "type": "SCALAR"
        },
        {
            "bufferView": 48,
            "componentType": 5123,
            "count": 8173,
            "normalized": true,
            "type": "VEC4"
        },
        {
            "bufferView": 49,
            "componentType": 5126,
            "count": 8173,
            "max": [
                66.67827606201172,
                56.63993453979492,
                1.3748438358306885
            ],
            "min": [
                -72.1362533569336,
                -86.62712860107422,
                -76.52024841308594
            ],
            "type": "VEC3"
        },
        {
            "bufferView": 50,
            "componentType": 5126,
            "count": 8173,
            "type": "VEC2"
        },
        {
            "bufferView": 51,
            "componentType": 5123,
            "count": 19833,
            "type": "SCALAR"
        },
        {
            "bufferView": 52,
            "componentType": 5123,
            "count": 6437,
            "normalized": true,
            "type": "VEC4"
        },
        {
            "bufferView": 53,
            "componentType": 5126,
            "count": 6437,
            "max": [
                66.66421508789062,
                56.68443298339844,
                1.1768536567687988
            ],
            "min": [
                -72.4289321899414,
                -86.46804809570312,
                -76.38763427734375
            ],
            "type": "VEC3"
        },
        {
            "bufferView": 54,
            "componentType": 5126,
            "count": 6437,
            "type": "VEC2"
        },
        {
            "bufferView": 55,
            "componentType": 5123,
            "count": 15147,
            "type": "SCALAR"
        },
        {
            "bufferView": 56,
            "componentType": 5123,
            "count": 4996,
            "normalized": true,
            "type": "VEC4"
        },
        {
            "bufferView": 57,
            "componentType": 5126,
            "count": 4996,
            "max": [
                66.77439880371094,
                56.75578308105469,
                1.4020568132400513
            ],
            "min": [
                -72.42972564697266,
                -86.62200927734375,
                -76.55853271484375
            ],
            "type": "VEC3"
        },
        {
            "bufferView": 58,
            "componentType": 5126,
            "count": 4996,
            "type": "VEC2"
        },
        {
            "bufferView": 59,
            "componentType": 5123,
            "count": 11106,
            "type": "SCALAR"
        },
        {
            "bufferView": 60,
            "componentType": 5123,
            "count": 8,
            "normalized": true,
            "type": "VEC4"
        },
        {
            "bufferView": 61,
            "componentType": 5126,
            "count": 8,
            "max": [
                66.56715393066406,
                0,
                1.0211765766143799
            ],
            "min": [
                -72.26960754394531,
                0,
                -76.3529052734375
            ],
            "type": "VEC3"
        },
        {
            "bufferView": 62,
            "componentType": 5126,
            "count": 8,
            "type": "VEC2"
        },
        {
            "bufferView": 63,
            "componentType": 5123,
            "count": 18,
            "type": "SCALAR"
        },
        {
            "bufferView": 64,
            "componentType": 5123,
            "count": 7611,
            "normalized": true,
            "type": "VEC4"
        },
        {
            "bufferView": 65,
            "componentType": 5126,
            "count": 7611,
            "max": [
                51.24231719970703,
                51.06357955932617,
                1.870278239250183
            ],
            "min": [
                -57.691627502441406,
                -58.1261100769043,
                -56.84823989868164
            ],
            "type": "VEC3"
        },
        {
            "bufferView": 66,
            "componentType": 5126,
            "count": 7611,
            "type": "VEC2"
        },
        {
            "bufferView": 67,
            "componentType": 5123,
            "count": 19122,
            "type": "SCALAR"
        },
        {
            "bufferView": 68,
            "componentType": 5123,
            "count": 6036,
            "normalized": true,
            "type": "VEC4"
        },
        {
            "bufferView": 69,
            "componentType": 5126,
            "count": 6036,
            "max": [
                51.251827239990234,
                51.014434814453125,
                2.0527806282043457
            ],
            "min": [
                -57.69191360473633,
                -58.17658996582031,
                -56.898681640625
            ],
            "type": "VEC3"
        },
        {
            "bufferView": 70,
            "componentType": 5126,
            "count": 6036,
            "type": "VEC2"
        },
        {
            "bufferView": 71,
            "componentType": 5123,
            "count": 14706,
            "type": "SCALAR"
        },
        {
            "bufferView": 72,
            "componentType": 5123,
            "count": 4723,
            "normalized": true,
            "type": "VEC4"
        },
        {
            "bufferView": 73,
            "componentType": 5126,
            "count": 4723,
            "max": [
                51.27883529663086,
                50.92403793334961,
                2.305074453353882
            ],
            "min": [
                -57.69435119628906,
                -58.14580154418945,
                -56.93940353393555
            ],
            "type": "VEC3"
        },
        {
            "bufferView": 74,
            "componentType": 5126,
            "count": 4723,
            "type": "VEC2"
        },
        {
            "bufferView": 75,
            "componentType": 5123,
            "count": 10920,
            "type": "SCALAR"
        },
        {
            "bufferView": 76,
            "componentType": 5123,
            "count": 9,
            "normalized": true,
            "type": "VEC4"
        },
        {
            "bufferView": 77,
            "componentType": 5126,
            "count": 9,
            "max": [
                51.24014663696289,
                0,
                0.33943378925323486
            ],
            "min": [
                -57.61594772338867,
                0,
                -56.876564025878906
            ],
            "type": "VEC3"
        },
        {
            "bufferView": 78,
            "componentType": 5126,
            "count": 9,
            "type": "VEC2"
        },
        {
            "bufferView": 79,
            "componentType": 5123,
            "count": 21,
            "type": "SCALAR"
        },
        {
            "bufferView": 80,
            "componentType": 5123,
            "count": 8070,
            "normalized": true,
            "type": "VEC4"
        },
        {
            "bufferView": 81,
            "componentType": 5126,
            "count": 8070,
            "max": [
                56.90178298950195,
                48.7168083190918,
                1.0505976676940918
            ],
            "min": [
                -65.8088150024414,
                -51.161991119384766,
                -52.20716094970703
            ],
            "type": "VEC3"
        },
        {
            "bufferView": 82,
            "componentType": 5126,
            "count": 8070,
            "type": "VEC2"
        },
        {
            "bufferView": 83,
            "componentType": 5123,
            "count": 18975,
            "type": "SCALAR"
        },
        {
            "bufferView": 84,
            "componentType": 5123,
            "count": 6318,
            "normalized": true,
            "type": "VEC4"
        },
        {
            "bufferView": 85,
            "componentType": 5126,
            "count": 6318,
            "max": [
                56.78174591064453,
                48.675025939941406,
                1.0487788915634155
            ],
            "min": [
                -65.84519958496094,
                -51.097904205322266,
                -52.273433685302734
            ],
            "type": "VEC3"
        },
        {
            "bufferView": 86,
            "componentType": 5126,
            "count": 6318,
            "type": "VEC2"
        },
        {
            "bufferView": 87,
            "componentType": 5123,
            "count": 14364,
            "type": "SCALAR"
        },
        {
            "bufferView": 88,
            "componentType": 5123,
            "count": 4923,
            "normalized": true,
            "type": "VEC4"
        },
        {
            "bufferView": 89,
            "componentType": 5126,
            "count": 4923,
            "max": [
                56.88846206665039,
                48.78304672241211,
                1.2574299573898315
            ],
            "min": [
                -65.95361328125,
                -51.16309356689453,
                -52.2949104309082
            ],
            "type": "VEC3"
        },
        {
            "bufferView": 90,
            "componentType": 5126,
            "count": 4923,
            "type": "VEC2"
        },
        {
            "bufferView": 91,
            "componentType": 5123,
            "count": 10494,
            "type": "SCALAR"
        },
        {
            "bufferView": 92,
            "componentType": 5123,
            "count": 10,
            "normalized": true,
            "type": "VEC4"
        },
        {
            "bufferView": 93,
            "componentType": 5126,
            "count": 10,
            "max": [
                56.74629211425781,
                0,
                1.0480197668075562
            ],
            "min": [
                -65.7906265258789,
                0,
                -52.200645446777344
            ],
            "type": "VEC3"
        },
        {
            "bufferView": 94,
            "componentType": 5126,
            "count": 10,
            "type": "VEC2"
        },
        {
            "bufferView": 95,
            "componentType": 5123,
            "count": 24,
            "type": "SCALAR"
        },
        {
            "bufferView": 96,
            "componentType": 5123,
            "count": 5620,
            "normalized": true,
            "type": "VEC4"
        },
        {
            "bufferView": 97,
            "componentType": 5126,
            "count": 5620,
            "max": [
                56.570823669433594,
                39.445289611816406,
                2.147955894470215
            ],
            "min": [
                -61.762088775634766,
                -83.82160186767578,
                -83.71920013427734
            ],
            "type": "VEC3"
        },
        {
            "bufferView": 98,
            "componentType": 5126,
            "count": 5620,
            "type": "VEC2"
        },
        {
            "bufferView": 99,
            "componentType": 5123,
            "count": 11808,
            "type": "SCALAR"
        },
        {
            "bufferView": 100,
            "componentType": 5123,
            "count": 4382,
            "normalized": true,
            "type": "VEC4"
        },
        {
            "bufferView": 101,
            "componentType": 5126,
            "count": 4382,
            "max": [
                56.47591781616211,
                39.20736312866211,
                2.6043224334716797
            ],
            "min": [
                -61.73552322387695,
                -83.82234191894531,
                -83.71934509277344
            ],
            "type": "VEC3"
        },
        {
            "bufferView": 102,
            "componentType": 5126,
            "count": 4382,
            "type": "VEC2"
        },
        {
            "bufferView": 103,
            "componentType": 5123,
            "count": 8994,
            "type": "SCALAR"
        },
        {
            "bufferView": 104,
            "componentType": 5123,
            "count": 3452,
            "normalized": true,
            "type": "VEC4"
        },
        {
            "bufferView": 105,
            "componentType": 5126,
            "count": 3452,
            "max": [
                56.48090362548828,
                39.20736312866211,
                3.467334508895874
            ],
            "min": [
                -62.74152374267578,
                -83.82247924804688,
                -83.72218322753906
            ],
            "type": "VEC3"
        },
        {
            "bufferView": 106,
            "componentType": 5126,
            "count": 3452,
            "type": "VEC2"
        },
        {
            "bufferView": 107,
            "componentType": 5123,
            "count": 6552,
            "type": "SCALAR"
        },
        {
            "bufferView": 108,
            "componentType": 5123,
            "count": 10,
            "normalized": true,
            "type": "VEC4"
        },
        {
            "bufferView": 109,
            "componentType": 5126,
            "count": 10,
            "max": [
                56.29309844970703,
                0,
                1.8905861377716064
            ],
            "min": [
                -61.75946044921875,
                0,
                -83.71916961669922
            ],
            "type": "VEC3"
        },
        {
            "bufferView": 110,
            "componentType": 5126,
            "count": 10,
            "type": "VEC2"
        },
        {
            "bufferView": 111,
            "componentType": 5123,
            "count": 24,
            "type": "SCALAR"
        },
        {
            "bufferView": 112,
            "componentType": 5123,
            "count": 1881,
            "normalized": true,
            "type": "VEC4"
        },
        {
            "bufferView": 113,
            "componentType": 5126,
            "count": 1881,
            "max": [
                43.97966384887695,
                43.673912048339844,
                2.359483480453491
            ],
            "min": [
                -45.02366638183594,
                -33.01069259643555,
                -88.08113098144531
            ],
            "type": "VEC3"
        },
        {
            "bufferView": 114,
            "componentType": 5126,
            "count": 1881,
            "type": "VEC2"
        },
        {
            "bufferView": 115,
            "componentType": 5123,
            "count": 3870,
            "type": "SCALAR"
        },
        {
            "bufferView": 116,
            "componentType": 5123,
            "count": 1484,
            "normalized": true,
            "type": "VEC4"
        },
        {
            "bufferView": 117,
            "componentType": 5126,
            "count": 1484,
            "max": [
                44.222537994384766,
                43.650390625,
                2.3568854331970215
            ],
            "min": [
                -44.89146423339844,
                -33.191951751708984,
                -88.3252944946289
            ],
            "type": "VEC3"
        },
        {
            "bufferView": 118,
            "componentType": 5126,
            "count": 1484,
            "type": "VEC2"
        },
        {
            "bufferView": 119,
            "componentType": 5123,
            "count": 2904,
            "type": "SCALAR"
        },
        {
            "bufferView": 120,
            "componentType": 5123,
            "count": 1133,
            "normalized": true,
            "type": "VEC4"
        },
        {
            "bufferView": 121,
            "componentType": 5126,
            "count": 1133,
            "max": [
                44.60407638549805,
                43.584720611572266,
                2.353334665298462
            ],
            "min": [
                -45.116172790527344,
                -33.150386810302734,
                -88.2109603881836
            ],
            "type": "VEC3"
        },
        {
            "bufferView": 122,
            "componentType": 5126,
            "count": 1133,
            "type": "VEC2"
        },
        {
            "bufferView": 123,
            "componentType": 5123,
            "count": 2022,
            "type": "SCALAR"
        },
        {
            "bufferView": 124,
            "componentType": 5123,
            "count": 5,
            "normalized": true,
            "type": "VEC4"
        },
        {
            "bufferView": 125,
            "componentType": 5126,
            "count": 5,
            "max": [
                43.8250732421875,
                0,
                2.355799436569214
            ],
            "min": [
                -45.077911376953125,
                0,
                -87.70977020263672
            ],
            "type": "VEC3"
        },
        {
            "bufferView": 126,
            "componentType": 5126,
            "count": 5,
            "type": "VEC2"
        },
        {
            "bufferView": 127,
            "componentType": 5123,
            "count": 9,
            "type": "SCALAR"
        }
    ],
    "bufferViews": [
        {
            "buffer": 0,
            "byteLength": 64016,
            "byteOffset": 0,
            "target": 34962
        },
        {
            "buffer": 0,
            "byteLength": 96024,
            "byteOffset": 64016,
            "target": 34962
        },
        {
            "buffer": 0,
            "byteLength": 64016,
            "byteOffset": 160040,
            "target": 34962
        },
        {
            "buffer": 0,
            "byteLength": 38934,
            "byteOffset": 224056,
            "target": 34963
        },
        {
            "buffer": 0,
            "byteLength": 49424,
            "byteOffset": 262992,
            "target": 34962
        },
        {
            "buffer": 0,
            "byteLength": 74136,
            "byteOffset": 312416,
            "target": 34962
        },
        {
            "buffer": 0,
            "byteLength": 49424,
            "byteOffset": 386552,
            "target": 34962
        },
        {
            "buffer": 0,
            "byteLength": 29292,
            "byteOffset": 435976,
            "target": 34963
        },
        {
            "buffer": 0,
            "byteLength": 38456,
            "byteOffset": 465268,
            "target": 34962
        },
        {
            "buffer": 0,
            "byteLength": 57684,
            "byteOffset": 503724,
            "target": 34962
        },
        {
            "buffer": 0,
            "byteLength": 38456,
            "byteOffset": 561408,
            "target": 34962
        },
        {
            "buffer": 0,
            "byteLength": 21528,
            "byteOffset": 599864,
            "target": 34963
        },
        {
            "buffer": 0,
            "byteLength": 80,
            "byteOffset": 621392,
            "target": 34962
        },
        {
            "buffer": 0,
            "byteLength": 120,
            "byteOffset": 621472,
            "target": 34962
        },
        {
            "buffer": 0,
            "byteLength": 80,
            "byteOffset": 621592,
            "target": 34962
        },
        {
            "buffer": 0,
            "byteLength": 48,
            "byteOffset": 621672,
            "target": 34963
        },
        {
            "buffer": 0,
            "byteLength": 11016,
            "byteOffset": 621720,
            "target": 34962
        },
        {
            "buffer": 0,
            "byteLength": 16524,
            "byteOffset": 632736,
            "target": 34962
        },
        {
            "buffer": 0,
            "byteLength": 11016,
            "byteOffset": 649260,
            "target": 34962
        },
        {
            "buffer": 0,
            "byteLength": 5352,
            "byteOffset": 660276,
            "target": 34963
        },
        {
            "buffer": 0,
            "byteLength": 8384,
            "byteOffset": 665628,
            "target": 34962
        },
        {
            "buffer": 0,
            "byteLength": 12576,
            "byteOffset": 674012,
            "target": 34962
        },
        {
            "buffer": 0,
            "byteLength": 8384,
            "byteOffset": 686588,
            "target": 34962
        },
        {
            "buffer": 0,
            "byteLength": 3924,
            "byteOffset": 694972,
            "target": 34963
        },
        {
            "buffer": 0,
            "byteLength": 6296,
            "byteOffset": 698896,
            "target": 34962
        },
        {
            "buffer": 0,
            "byteLength": 9444,
            "byteOffset": 705192,
            "target": 34962
        },
        {
            "buffer": 0,
            "byteLength": 6296,
            "byteOffset": 714636,
            "target": 34962
        },
        {
            "buffer": 0,
            "byteLength": 2544,
            "byteOffset": 720932,
            "target": 34963
        },
        {
            "buffer": 0,
            "byteLength": 40,
            "byteOffset": 723476,
            "target": 34962
        },
        {
            "buffer": 0,
            "byteLength": 60,
            "byteOffset": 723516,
            "target": 34962
        },
        {
            "buffer": 0,
            "byteLength": 40,
            "byteOffset": 723576,
            "target": 34962
        },
        {
            "buffer": 0,
            "byteLength": 18,
            "byteOffset": 723616,
            "target": 34963
        },
        {
            "buffer": 0,
            "byteLength": 2896,
            "byteOffset": 723636,
            "target": 34962
        },
        {
            "buffer": 0,
            "byteLength": 4344,
            "byteOffset": 726532,
            "target": 34962
        },
        {
            "buffer": 0,
            "byteLength": 2896,
            "byteOffset": 730876,
            "target": 34962
        },
        {
            "buffer": 0,
            "byteLength": 1272,
            "byteOffset": 733772,
            "target": 34963
        },
        {
            "buffer": 0,
            "byteLength": 2208,
            "byteOffset": 735044,
            "target": 34962
        },
        {
            "buffer": 0,
            "byteLength": 3312,
            "byteOffset": 737252,
            "target": 34962
        },
        {
            "buffer": 0,
            "byteLength": 2208,
            "byteOffset": 740564,
            "target": 34962
        },
        {
            "buffer": 0,
            "byteLength": 936,
            "byteOffset": 742772,
            "target": 34963
        },
        {
            "buffer": 0,
            "byteLength": 1656,
            "byteOffset": 743708,
            "target": 34962
        },
        {
            "buffer": 0,
            "byteLength": 2484,
            "byteOffset": 745364,
            "target": 34962
        },
        {
            "buffer": 0,
            "byteLength": 1656,
            "byteOffset": 747848,
            "target": 34962
        },
        {
            "buffer": 0,
            "byteLength": 600,
            "byteOffset": 749504,
            "target": 34963
        },
        {
            "buffer": 0,
            "byteLength": 48,
            "byteOffset": 750104,
            "target": 34962
        },
        {
            "buffer": 0,
            "byteLength": 72,
            "byteOffset": 750152,
            "target": 34962
        },
        {
            "buffer": 0,
            "byteLength": 48,
            "byteOffset": 750224,
            "target": 34962
        },
        {
            "buffer": 0,
            "byteLength": 24,
            "byteOffset": 750272,
            "target": 34963
        },
        {
            "buffer": 0,
            "byteLength": 65384,
            "byteOffset": 750296,
            "target": 34962
        },
        {
            "buffer": 0,
            "byteLength": 98076,
            "byteOffset": 815680,
            "target": 34962
        },
        {
            "buffer": 0,
            "byteLength": 65384,
            "byteOffset": 913756,
            "target": 34962
        },
        {
            "buffer": 0,
            "byteLength": 39666,
            "byteOffset": 979140,
            "target": 34963
        },
        {
            "buffer": 0,
            "byteLength": 51496,
            "byteOffset": 1018808,
            "target": 34962
        },
        {
            "buffer": 0,
            "byteLength": 77244,
            "byteOffset": 1070304,
            "target": 34962
        },
        {
            "buffer": 0,
            "byteLength": 51496,
            "byteOffset": 1147548,
            "target": 34962
        },
        {
            "buffer": 0,
            "byteLength": 30294,
            "byteOffset": 1199044,
            "target": 34963
        },
        {
            "buffer": 0,
            "byteLength": 39968,
            "byteOffset": 1229340,
            "target": 34962
        },
        {
            "buffer": 0,
            "byteLength": 59952,
            "byteOffset": 1269308,
            "target": 34962
        },
        {
            "buffer": 0,
            "byteLength": 39968,
            "byteOffset": 1329260,
            "target": 34962
        },
        {
            "buffer": 0,
            "byteLength": 22212,
            "byteOffset": 1369228,
            "target": 34963
        },
        {
            "buffer": 0,
            "byteLength": 64,
            "byteOffset": 1391440,
            "target": 34962
        },
        {
            "buffer": 0,
            "byteLength": 96,
            "byteOffset": 1391504,
            "target": 34962
        },
        {
            "buffer": 0,
            "byteLength": 64,
            "byteOffset": 1391600,
            "target": 34962
        },
        {
            "buffer": 0,
            "byteLength": 36,
            "byteOffset": 1391664,
            "target": 34963
        },
        {
            "buffer": 0,
            "byteLength": 60888,
            "byteOffset": 1391700,
            "target": 34962
        },
        {
            "buffer": 0,
            "byteLength": 91332,
            "byteOffset": 1452588,
            "target": 34962
        },
        {
            "buffer": 0,
            "byteLength": 60888,
            "byteOffset": 1543920,
            "target": 34962
        },
        {
            "buffer": 0,
            "byteLength": 38244,
            "byteOffset": 1604808,
            "target": 34963
        },
        {
            "buffer": 0,
            "byteLength": 48288,
            "byteOffset": 1643052,
            "target": 34962
        },
        {
            "buffer": 0,
            "byteLength": 72432,
            "byteOffset": 1691340,
            "target": 34962
        },
        {
            "buffer": 0,
            "byteLength": 48288,
            "byteOffset": 1763772,
            "target": 34962
        },
        {
            "buffer": 0,
            "byteLength": 29412,
            "byteOffset": 1812060,
            "target": 34963
        },
        {
            "buffer": 0,
            "byteLength": 37784,
            "byteOffset": 1841472,
            "target": 34962
        },
        {
            "buffer": 0,
            "byteLength": 56676,
            "byteOffset": 1879256,
            "target": 34962
        },
        {
            "buffer": 0,
            "byteLength": 37784,
            "byteOffset": 1935932,
            "target": 34962
        },
        {
            "buffer": 0,
            "byteLength": 21840,
            "byteOffset": 1973716,
            "target": 34963
        },
        {
            "buffer": 0,
            "byteLength": 72,
            "byteOffset": 1995556,
            "target": 34962
        },
        {
            "buffer": 0,
            "byteLength": 108,
            "byteOffset": 1995628,
            "target": 34962
        },
        {
            "buffer": 0,
            "byteLength": 72,
            "byteOffset": 1995736,
            "target": 34962
        },
        {
            "buffer": 0,
            "byteLength": 42,
            "byteOffset": 1995808,
            "target": 34963
        },
        {
            "buffer": 0,
            "byteLength": 64560,
            "byteOffset": 1995852,
            "target": 34962
        },
        {
            "buffer": 0,
            "byteLength": 96840,
            "byteOffset": 2060412,
            "target": 34962
        },
        {
            "buffer": 0,
            "byteLength": 64560,
            "byteOffset": 2157252,
            "target": 34962
        },
        {
            "buffer": 0,
            "byteLength": 37950,
            "byteOffset": 2221812,
            "target": 34963
        },
        {
            "buffer": 0,
            "byteLength": 50544,
            "byteOffset": 2259764,
            "target": 34962
        },
        {
            "buffer": 0,
            "byteLength": 75816,
            "byteOffset": 2310308,
            "target": 34962
        },
        {
            "buffer": 0,
            "byteLength": 50544,
            "byteOffset": 2386124,
            "target": 34962
        },
        {
            "buffer": 0,
            "byteLength": 28728,
            "byteOffset": 2436668,
            "target": 34963
        },
        {
            "buffer": 0,
            "byteLength": 39384,
            "byteOffset": 2465396,
            "target": 34962
        },
        {
            "buffer": 0,
            "byteLength": 59076,
            "byteOffset": 2504780,
            "target": 34962
        },
        {
            "buffer": 0,
            "byteLength": 39384,
            "byteOffset": 2563856,
            "target": 34962
        },
        {
            "buffer": 0,
            "byteLength": 20988,
            "byteOffset": 2603240,
            "target": 34963
        },
        {
            "buffer": 0,
            "byteLength": 80,
            "byteOffset": 2624228,
            "target": 34962
        },
        {
            "buffer": 0,
            "byteLength": 120,
            "byteOffset": 2624308,
            "target": 34962
        },
        {
            "buffer": 0,
            "byteLength": 80,
            "byteOffset": 2624428,
            "target": 34962
        },
        {
            "buffer": 0,
            "byteLength": 48,
            "byteOffset": 2624508,
            "target": 34963
        },
        {
            "buffer": 0,
            "byteLength": 44960,
            "byteOffset": 2624556,
            "target": 34962
        },
        {
            "buffer": 0,
            "byteLength": 67440,
            "byteOffset": 2669516,
            "target": 34962
        },
        {
            "buffer": 0,
            "byteLength": 44960,
            "byteOffset": 2736956,
            "target": 34962
        },
        {
            "buffer": 0,
            "byteLength": 23616,
            "byteOffset": 2781916,
            "target": 34963
        },
        {
            "buffer": 0,
            "byteLength": 35056,
            "byteOffset": 2805532,
            "target": 34962
        },
        {
            "buffer": 0,
            "byteLength": 52584,
            "byteOffset": 2840588,
            "target": 34962
        },
        {
            "buffer": 0,
            "byteLength": 35056,
            "byteOffset": 2893172,
            "target": 34962
        },
        {
            "buffer": 0,
            "byteLength": 17988,
            "byteOffset": 2928228,
            "target": 34963
        },
        {
            "buffer": 0,
            "byteLength": 27616,
            "byteOffset": 2946216,
            "target": 34962
        },
        {
            "buffer": 0,
            "byteLength": 41424,
            "byteOffset": 2973832,
            "target": 34962
        },
        {
            "buffer": 0,
            "byteLength": 27616,
            "byteOffset": 3015256,
            "target": 34962
        },
        {
            "buffer": 0,
            "byteLength": 13104,
            "byteOffset": 3042872,
            "target": 34963
        },
        {
            "buffer": 0,
            "byteLength": 80,
            "byteOffset": 3055976,
            "target": 34962
        },
        {
            "buffer": 0,
            "byteLength": 120,
            "byteOffset": 3056056,
            "target": 34962
        },
        {
            "buffer": 0,
            "byteLength": 80,
            "byteOffset": 3056176,
            "target": 34962
        },
        {
            "buffer": 0,
            "byteLength": 48,
            "byteOffset": 3056256,
            "target": 34963
        },
        {
            "buffer": 0,
            "byteLength": 15048,
            "byteOffset": 3056304,
            "target": 34962
        },
        {
            "buffer": 0,
            "byteLength": 22572,
            "byteOffset": 3071352,
            "target": 34962
        },
        {
            "buffer": 0,
            "byteLength": 15048,
            "byteOffset": 3093924,
            "target": 34962
        },
        {
            "buffer": 0,
            "byteLength": 7740,
            "byteOffset": 3108972,
            "target": 34963
        },
        {
            "buffer": 0,
            "byteLength": 11872,
            "byteOffset": 3116712,
            "target": 34962
        },
        {
            "buffer": 0,
            "byteLength": 17808,
            "byteOffset": 3128584,
            "target": 34962
        },
        {
            "buffer": 0,
            "byteLength": 11872,
            "byteOffset": 3146392,
            "target": 34962
        },
        {
            "buffer": 0,
            "byteLength": 5808,
            "byteOffset": 3158264,
            "target": 34963
        },
        {
            "buffer": 0,
            "byteLength": 9064,
            "byteOffset": 3164072,
            "target": 34962
        },
        {
            "buffer": 0,
            "byteLength": 13596,
            "byteOffset": 3173136,
            "target": 34962
        },
        {
            "buffer": 0,
            "byteLength": 9064,
            "byteOffset": 3186732,
            "target": 34962
        },
        {
            "buffer": 0,
            "byteLength": 4044,
            "byteOffset": 3195796,
            "target": 34963
        },
        {
            "buffer": 0,
            "byteLength": 40,
            "byteOffset": 3199840,
            "target": 34962
        },
        {
            "buffer": 0,
            "byteLength": 60,
            "byteOffset": 3199880,
            "target": 34962
        },
        {
            "buffer": 0,
            "byteLength": 40,
            "byteOffset": 3199940,
            "target": 34962
        },
        {
            "buffer": 0,
            "byteLength": 18,
            "byteOffset": 3199980,
            "target": 34963
        }
    ],
    "samplers": [
        {
            "magFilter": 9729,
            "minFilter": 9987
        }
    ],
    "buffers": [
        {
            "byteLength": 3200000,
            "uri": "../vczndjqja_tier_2.bin"
        }
    ],
    "extras": {
        "tier": 2
    }
}