{
  "accessors": [
    {
      "bufferView": 2,
      "componentType": 5126,
      "count": 601,
      "max": [
        0.5371122360229492,
        0.14365819096565247,
        0.8694955706596375
      ],
      "min": [
        0.26709267497062683,
        -0.012092947959899902,
        -0.6373960971832275
      ],
      "type": "VEC3"
    },
    {
      "bufferView": 2,
      "byteOffset": 7212,
      "componentType": 5126,
      "count": 601,
      "type": "VEC3"
    },
    {
      "bufferView": 3,
      "componentType": 5126,
      "count": 601,
      "type": "VEC4"
    },
    {
      "bufferView": 1,
      "componentType": 5126,
      "count": 601,
      "type": "VEC2"
    },
    {
      "bufferView": 0,
      "componentType": 5125,
      "count": 2244,
      "type": "SCALAR"
    },
    {
      "bufferView": 2,
      "byteOffset": 14424,
      "componentType": 5126,
      "count": 214,
      "max": [
        0.2335871458053589,
        0.30999618768692017,
        1.3293689489364624
      ],
      "min": [
        -0.24290962517261505,
        -0.12799376249313354,
        0.7781862616539001
      ],
      "type": "VEC3"
    },
    {
      "bufferView": 2,
      "byteOffset": 16992,
      "componentType": 5126,
      "count": 214,
      "type": "VEC3"
    },
    {
      "bufferView": 3,
      "byteOffset": 9616,
      "componentType": 5126,
      "count": 214,
      "type": "VEC4"
    },
    {
      "bufferView": 1,
      "byteOffset": 4808,
      "componentType": 5126,
      "count": 214,
      "type": "VEC2"
    },
    {
      "bufferView": 0,
      "byteOffset": 8976,
      "componentType": 5125,
      "count": 1080,
      "type": "SCALAR"
    },
    {
      "bufferView": 2,
      "byteOffset": 19560,
      "componentType": 5126,
      "count": 512,
      "max": [
        0.24663840234279633,
        0.22055642306804657,
        -0.06502169370651245
      ],
      "min": [
        0.08255845308303833,
        -0.14708943665027618,
        -1.4122250080108643
      ],
      "type": "VEC3"
    },
    {
      "bufferView": 2,
      "byteOffset": 25704,
      "componentType": 5126,
      "count": 512,
      "type": "VEC3"
    },
    {
      "bufferView": 3,
      "byteOffset": 13040,
      "componentType": 5126,
      "count": 512,
      "type": "VEC4"
    },
    {
      "bufferView": 1,
      "byteOffset": 6520,
      "componentType": 5126,
      "count": 512,
      "type": "VEC2"
    },
    {
      "bufferView": 0,
      "byteOffset": 13296,
      "componentType": 5125,
      "count": 1896,
      "type": "SCALAR"
    },
    {
      "bufferView": 2,
      "byteOffset": 31848,
      "componentType": 5126,
      "count": 601,
      "max": [
        -0.25122785568237305,
        0.1436581164598465,
        0.8694954514503479
      ],
      "min": [
        -0.521247386932373,
        -0.012092985212802887,
        -0.637395977973938
      ],
      "type": "VEC3"
    },
    {
      "bufferView": 2,
      "byteOffset": 39060,
      "componentType": 5126,
      "count": 601,
      "type": "VEC3"
    },
    {
      "bufferView": 3,
      "byteOffset": 21232,
      "componentType": 5126,
      "count": 601,
      "type": "VEC4"
    },
    {
      "bufferView": 1,
      "byteOffset": 10616,
      "componentType": 5126,
      "count": 601,
      "type": "VEC2"
    },
    {
      "bufferView": 0,
      "byteOffset": 20880,
      "componentType": 5125,
      "count": 2244,
      "type": "SCALAR"
    },
    {
      "bufferView": 2,
      "byteOffset": 46272,
      "componentType": 5126,
      "count": 1795,
      "max": [
        0.42833030223846436,
        0.22968444228172302,
        0.9557148218154907
      ],
      "min": [
        -0.4471137225627899,
        -0.20280829071998596,
        -0.18548446893692017
      ],
      "type": "VEC3"
    },
    {
      "bufferView": 2,
      "byteOffset": 67812,
      "componentType": 5126,
      "count": 1795,
      "type": "VEC3"
    },
    {
      "bufferView": 3,
      "byteOffset": 30848,
      "componentType": 5126,
      "count": 1795,
      "type": "VEC4"
    },
    {
      "bufferView": 1,
      "byteOffset": 15424,
      "componentType": 5126,
      "count": 1795,
      "type": "VEC2"
    },
    {
      "bufferView": 0,
      "byteOffset": 29856,
      "componentType": 5125,
      "count": 7944,
      "type": "SCALAR"
    },
    {
      "bufferView": 2,
      "byteOffset": 89352,
      "componentType": 5126,
      "count": 512,
      "max": [
        -0.10183998942375183,
        0.22159476578235626,
        -0.06502169370651245
      ],
      "min": [
        -0.26591992378234863,
        -0.14708943665027618,
        -1.4122250080108643
      ],
      "type": "VEC3"
    },
    {
      "bufferView": 2,
      "byteOffset": 95496,
      "componentType": 5126,
      "count": 512,
      "type": "VEC3"
    },
    {
      "bufferView": 3,
      "byteOffset": 59568,
      "componentType": 5126,
      "count": 512,
      "type": "VEC4"
    },
    {
      "bufferView": 1,
      "byteOffset": 29784,
      "componentType": 5126,
      "count": 512,
      "type": "VEC2"
    },
    {
      "bufferView": 0,
      "byteOffset": 61632,
      "componentType": 5125,
      "count": 1896,
      "type": "SCALAR"
    }
  ],
  "asset": {
    "generator": "fab-model-conversion",
    "version": "2.0"
  },
  "bufferViews": [
    {
      "buffer": 0,
      "byteLength": 69216,
      "target": 34963
    },
    {
      "buffer": 0,
      "byteLength": 33880,
      "byteOffset": 69216,
      "byteStride": 8,
      "target": 34962
    },
    {
      "buffer": 0,
      "byteLength": 101640,
      "byteOffset": 103096,
      "byteStride": 12,
      "target": 34962
    },
    {
      "buffer": 0,
      "byteLength": 67760,
      "byteOffset": 204736,
      "byteStride": 16,
      "target": 34962
    }
  ],
  "buffers": [
    {
      "byteLength": 272496,
      "uri": "scene.bin"
    }
  ],
  "images": [
    {
      "uri": "textures/M_Skeleton_Lord_Arm_R_baseColor.jpeg"
    },
    {
      "uri": "textures/M_Skeleton_Lord_Arm_R_metallicRoughness.jpeg"
    },
    {
      "uri": "textures/M_Skeleton_Lord_Arm_R_normal.png"
    },
    {
      "uri": "textures/M_Skeleton_Lord_Head_baseColor.jpeg"
    },
    {
      "uri": "textures/M_Skeleton_Lord_Head_metallicRoughness.jpeg"
    },
    {
      "uri": "textures/M_Skeleton_Lord_Head_emissive.jpeg"
    },
    {
      "uri": "textures/M_Skeleton_Lord_Head_normal.png"
    },
    {
      "uri": "textures/M_Skeleton_Lord_Leg_R_baseColor.jpeg"
    },
    {
      "uri": "textures/M_Skeleton_Lord_Leg_R_metallicRoughness.jpeg"
    },
    {
      "uri": "textures/M_Skeleton_Lord_Leg_R_normal.png"
    },
    {
      "uri": "textures/M_Skeleton_Lord_Arm_L_baseColor.jpeg"
    },
    {
      "uri": "textures/M_Skeleton_Lord_Arm_L_metallicRoughness.jpeg"
    },
    {
      "uri": "textures/M_Skeleton_Lord_Arm_L_normal.png"
    },
    {
      "uri": "textures/M_Skeleton_Lord_Torso_baseColor.jpeg"
    },
    {
      "uri": "textures/M_Skeleton_Lord_Torso_metallicRoughness.jpeg"
    },
    {
      "uri": "textures/M_Skeleton_Lord_Torso_normal.png"
    },
    {
      "uri": "textures/M_Skeleton_Lord_Leg_L_baseColor.jpeg"
    },
    {
      "uri": "textures/M_Skeleton_Lord_Leg_L_metallicRoughness.jpeg"
    },
    {
      "uri": "textures/M_Skeleton_Lord_Leg_L_normal.png"
    }
  ],
  "materials": [
    {
      "doubleSided": true,
      "name": "M_Skeleton_Lord_Arm_R",
      "normalTexture": {
        "index": 2
      },
      "occlusionTexture": {
        "index": 1
      },
      "pbrMetallicRoughness": {
        "baseColorTexture": {
          "index": 0
        },
        "metallicRoughnessTexture": {
          "index": 1
        }
      }
    },
    {
      "doubleSided": true,
      "emissiveFactor": [
        1.0,
        1.0,
        1.0
      ],
      "emissiveTexture": {
        "index": 5
      },
      "name": "M_Skeleton_Lord_Head",
      "normalTexture": {
        "index": 6
      },
      "occlusionTexture": {
        "index": 4
      },
      "pbrMetallicRoughness": {
        "baseColorTexture": {
          "index": 3
        },
        "metallicRoughnessTexture": {
          "index": 4
        }
      }
    },
    {
      "doubleSided": true,
      "name": "M_Skeleton_Lord_Leg_R",
      "normalTexture": {
        "index": 9
      },
      "occlusionTexture": {
        "index": 8
      },
      "pbrMetallicRoughness": {
        "baseColorTexture": {
          "index": 7
        },
        "metallicRoughnessTexture": {
          "index": 8
        }
      }
    },
    {
      "doubleSided": true,
      "name": "M_Skeleton_Lord_Arm_L",
      "normalTexture": {
        "index": 12
      },
      "occlusionTexture": {
        "index": 11
      },
      "pbrMetallicRoughness": {
        "baseColorTexture": {
          "index": 10
        },
        "metallicRoughnessTexture": {
          "index": 11
        }
      }
    },
    {
      "doubleSided": true,
      "name": "M_Skeleton_Lord_Torso",
      "normalTexture": {
        "index": 15
      },
      "occlusionTexture": {
        "index": 14
      },
      "pbrMetallicRoughness": {
        "baseColorTexture": {
          "index": 13
        },
        "metallicRoughnessTexture": {
          "index": 14
        }
      }
    },
    {
      "doubleSided": true,
      "name": "M_Skeleton_Lord_Leg_L",
      "normalTexture": {
        "index": 18
      },
      "occlusionTexture": {
        "index": 17
      },
      "pbrMetallicRoughness": {
        "baseColorTexture": {
          "index": 16
        },
        "metallicRoughnessTexture": {
          "index": 17
        }
      }
    }
  ],
  "meshes": [
    {
      "name": "SM_Skeleton_Lord_Arm_R_M_Skeleton_Lord_Arm_R_0",
      "primitives": [
        {
          "attributes": {
            "NORMAL": 1,
            "POSITION": 0,
            "TANGENT": 2,
            "TEXCOORD_0": 3
          },
          "indices": 4,
          "material": 0,
          "mode": 4
        }
      ]
    },
    {
      "name": "SM_Skeleton_Lord_Head_M_Skeleton_Lord_Head_0",
      "primitives": [
        {
          "attributes": {
            "NORMAL": 6,
            "POSITION": 5,
            "TANGENT": 7,
            "TEXCOORD_0": 8
          },
          "indices": 9,
          "material": 1,
          "mode": 4
        }
      ]
    },
    {
      "name": "SM_Skeleton_Lord_Leg_R_M_Skeleton_Lord_Leg_R_0",
      "primitives": [
        {
          "attributes": {
            "NORMAL": 11,
            "POSITION": 10,
            "TANGENT": 12,
            "TEXCOORD_0": 13
          },
          "indices": 14,
          "material": 2,
          "mode": 4
        }
      ]
    },
    {
      "name": "SM_Skeleton_Lord_Arm_L_M_Skeleton_Lord_Arm_L_0",
      "primitives": [
        {
          "attributes": {
            "NORMAL": 16,
            "POSITION": 15,
            "TANGENT": 17,
            "TEXCOORD_0": 18
          },
          "indices": 19,
          "material": 3,
          "mode": 4
        }
      ]
    },
    {
      "name": "SM_Skeleton_Lord_Torso_M_Skeleton_Lord_Torso_0",
      "primitives": [
        {
          "attributes": {
            "NORMAL": 21,
            "POSITION": 20,
            "TANGENT": 22,
            "TEXCOORD_0": 23
          },
          "indices": 24,
          "material": 4,
          "mode": 4
        }
      ]
    },
    {
      "name": "SM_Skeleton_Lord_Leg_L_M_Skeleton_Lord_Leg_L_0",
      "primitives": [
        {
          "attributes": {
            "NORMAL": 26,
            "POSITION": 25,
            "TANGENT": 27,
            "TEXCOORD_0": 28
          },
          "indices": 29,
          "material": 5,
          "mode": 4
        }
      ]
    }
  ],
  "nodes": [
    {
      "children": [
        1
      ],
      "matrix": [
        1.0,
        0.0,
        0.0,
        0.0,
        0.0,
        2.220446049250313e-16,
        -1.0,
        0.0,
        0.0,
        1.0,
        2.220446049250313e-16,
        0.0,
        0.0,
        0.0,
        0.0,
        1.0
      ],
      "name": "Sketchfab_model"
    },
    {
      "children": [
        2
      ],
      "matrix": [
        0.009999999776482582,
        0.0,
        0.0,
        0.0,
        0.0,
        0.0,
        0.009999999776482582,
        0.0,
        0.0,
        -0.009999999776482582,
        0.0,
        0.0,
        0.0,
        0.0,
        0.0,
        1.0
      ],
      "name": "463d08cd929944c5a7e9a882a804eae1.fbx"
    },
    {
      "children": [
        3,
        5,
        7,
        9,
        11,
        13
      ],
      "name": "RootNode"
    },
    {
      "children": [
        4
      ],
      "matrix": [
        100.0,
        0.0,
        0.0,
        0.0,
        0.0,
        -1.629206793918314e-05,
        -99.99999999999868,
        0.0,
        0.0,
        99.99999999999868,
        -1.629206793918314e-05,
        0.0,
        0.0,
        0.0,
        0.0,
        1.0
      ],
      "name": "SM_Skeleton_Lord_Arm_R"
    },
    {
      "mesh": 0,
      "name": "SM_Skeleton_Lord_Arm_R_M_Skeleton_Lord_Arm_R_0"
    },
    {
      "children": [
        6
      ],
      "matrix": [
        100.0,
        0.0,
        0.0,
        0.0,
        0.0,
        -1.629206793918314e-05,
        -99.99999999999868,
        0.0,
        0.0,
        99.99999999999868,
        -1.629206793918314e-05,
        0.0,
        0.0,
        0.0,
        0.0,
        1.0
      ],
      "name": "SM_Skeleton_Lord_Head"
    },
    {
      "mesh": 1,
      "name": "SM_Skeleton_Lord_Head_M_Skeleton_Lord_Head_0"
    },
    {
      "children": [
        8
      ],
      "matrix": [
        100.0,
        0.0,
        0.0,
        0.0,
        0.0,
        -1.629206793918314e-05,
        -99.99999999999868,
        0.0,
        0.0,
        99.99999999999868,
        -1.629206793918314e-05,
        0.0,
        0.0,
        0.0,
        0.0,
        1.0
      ],
      "name": "SM_Skeleton_Lord_Leg_R"
    },
    {
      "mesh": 2,
      "name": "SM_Skeleton_Lord_Leg_R_M_Skeleton_Lord_Leg_R_0"
    },
    {
      "children": [
        10
      ],
      "matrix": [
        100.0,
        0.0,
        0.0,
        0.0,
        0.0,
        -1.629206793918314e-05,
        -99.99999999999868,
        0.0,
        0.0,
        99.99999999999868,
        -1.629206793918314e-05,
        0.0,
        0.0,
        0.0,
        0.0,
        1.0
      ],
      "name": "SM_Skeleton_Lord_Arm_L"
    },
    {
      "mesh": 3,
      "name": "SM_Skeleton_Lord_Arm_L_M_Skeleton_Lord_Arm_L_0"
    },
    {
      "children": [
        12
      ],
      "matrix": [
        100.0,
        0.0,
        0.0,
        0.0,
        0.0,
        -1.629206793918314e-05,
        -99.99999999999868,
        0.0,
        0.0,
        99.99999999999868,
        -1.629206793918314e-05,
        0.0,
        0.0,
        0.0,
        0.0,
        1.0
      ],
      "name": "SM_Skeleton_Lord_Torso"
    },
    {
      "mesh": 4,
      "name": "SM_Skeleton_Lord_Torso_M_Skeleton_Lord_Torso_0"
    },
    {
      "children": [
        14
      ],
      "matrix": [
        100.0,
        0.0,
        0.0,
        0.0,
        0.0,
        -1.629206793918314e-05,
        -99.99999999999868,
        0.0,
        0.0,
        99.99999999999868,
        -1.629206793918314e-05,
        0.0,
        0.0,
        0.0,
        0.0,
        1.0
      ],
      "name": "SM_Skeleton_Lord_Leg_L"
    },
    {
      "mesh": 5,
      "name": "SM_Skeleton_Lord_Leg_L_M_Skeleton_Lord_Leg_L_0"
    }
  ],
  "samplers": [
    {
      "magFilter": 9729,
      "minFilter": 9987,
      "wrapS": 10497,
      "wrapT": 10497
    }
  ],
  "scene": 0,
  "scenes": [
    {
      "name": "Sketchfab_Scene",
      "nodes": [
        0
      ]
    }
  ],
  "textures": [
    {
      "sampler": 0,
      "source": 0
    },
    {
      "sampler": 0,
      "source": 1
    },
    {
      "sampler": 0,
      "source": 2
    },
    {
      "sampler": 0,
      "source": 3
    },
    {
      "sampler": 0,
      "source": 4
    },
    {
      "sampler": 0,
      "source": 5
    },
    {
      "sampler": 0,
      "source": 6
    },
    {
      "sampler": 0,
      "source": 7
    },
    {
      "sampler": 0,
      "source": 8
    },
    {
      "sampler": 0,
      "source": 9
    },
    {
      "sampler": 0,
      "source": 10
    },
    {
      "sampler": 0,
      "source": 11
    },
    {
      "sampler": 0,
      "source": 12
    },
    {
      "sampler": 0,
      "source": 13
    },
    {
      "sampler": 0,
      "source": 14
    },
    {
      "sampler": 0,
      "source": 15
    },
    {
      "sampler": 0,
      "source": 16
    },
    {
      "sampler": 0,
      "source": 17
    },
    {
      "sampler": 0,
      "source": 18
    }
  ]
}
